<mxfile host="Electron" modified="2024-06-03T01:44:04.587Z" agent="Mozilla/5.0 (Windows NT 10.0; Win64; x64) AppleWebKit/537.36 (KHTML, like Gecko) draw.io/24.4.13 Chrome/124.0.6367.207 Electron/30.0.6 Safari/537.36" etag="_GNmuNNVeav7ablYg9py" version="24.4.13" type="device">
  <diagram name="Page-1" id="HOEwcNpTzvut5RnjV_mv">
    <mxGraphModel dx="1185" dy="683" grid="0" gridSize="10" guides="1" tooltips="1" connect="1" arrows="1" fold="1" page="1" pageScale="3" pageWidth="827" pageHeight="1169" math="0" shadow="0">
      <root>
        <mxCell id="0" />
        <mxCell id="1" parent="0" />
        <mxCell id="XczhMHpNAEnqqgj0WqHP-147" value="" style="rounded=0;whiteSpace=wrap;html=1;fillColor=#fff2cc;strokeColor=#d6b656;shadow=1;" parent="1" vertex="1">
          <mxGeometry x="1800" y="570.18" width="120" height="340.06" as="geometry" />
        </mxCell>
        <mxCell id="XczhMHpNAEnqqgj0WqHP-117" value="" style="rounded=0;whiteSpace=wrap;html=1;fillColor=#d5e8d4;strokeColor=#82b366;shadow=1;" parent="1" vertex="1">
          <mxGeometry x="1560" y="570.06" width="160" height="340.06" as="geometry" />
        </mxCell>
        <mxCell id="XczhMHpNAEnqqgj0WqHP-115" value="" style="rounded=0;whiteSpace=wrap;html=1;fillColor=#f8cecc;strokeColor=#b85450;shadow=1;" parent="1" vertex="1">
          <mxGeometry x="1240" y="570.18" width="280" height="339.94" as="geometry" />
        </mxCell>
        <mxCell id="XczhMHpNAEnqqgj0WqHP-114" value="" style="rounded=0;whiteSpace=wrap;html=1;fillColor=#fff2cc;strokeColor=#d6b656;shadow=1;" parent="1" vertex="1">
          <mxGeometry x="1120" y="570.06" width="120" height="339.94" as="geometry" />
        </mxCell>
        <mxCell id="8pWqfnIADPwaS1QSFsII-1" value="" style="endArrow=none;html=1;rounded=0;" parent="1" edge="1">
          <mxGeometry width="50" height="50" relative="1" as="geometry">
            <mxPoint x="200" y="420" as="sourcePoint" />
            <mxPoint x="200" y="100" as="targetPoint" />
          </mxGeometry>
        </mxCell>
        <mxCell id="8pWqfnIADPwaS1QSFsII-2" value="" style="endArrow=none;html=1;rounded=0;strokeWidth=0.5;dashed=1;dashPattern=8 8;strokeColor=#595959;" parent="1" edge="1">
          <mxGeometry width="50" height="50" relative="1" as="geometry">
            <mxPoint x="240" y="420" as="sourcePoint" />
            <mxPoint x="240" y="100" as="targetPoint" />
          </mxGeometry>
        </mxCell>
        <mxCell id="8pWqfnIADPwaS1QSFsII-3" value="" style="endArrow=none;html=1;rounded=0;strokeWidth=0.5;dashed=1;dashPattern=8 8;strokeColor=#595959;" parent="1" edge="1">
          <mxGeometry width="50" height="50" relative="1" as="geometry">
            <mxPoint x="399" y="420" as="sourcePoint" />
            <mxPoint x="399.31" y="100" as="targetPoint" />
          </mxGeometry>
        </mxCell>
        <mxCell id="8pWqfnIADPwaS1QSFsII-4" value="" style="endArrow=none;html=1;rounded=0;strokeWidth=0.5;dashed=1;dashPattern=8 8;strokeColor=#595959;" parent="1" edge="1">
          <mxGeometry width="50" height="50" relative="1" as="geometry">
            <mxPoint x="320" y="420" as="sourcePoint" />
            <mxPoint x="319.65999999999997" y="100" as="targetPoint" />
          </mxGeometry>
        </mxCell>
        <mxCell id="8pWqfnIADPwaS1QSFsII-5" value="" style="endArrow=none;html=1;rounded=0;strokeWidth=0.5;dashed=1;dashPattern=8 8;strokeColor=#595959;" parent="1" edge="1">
          <mxGeometry width="50" height="50" relative="1" as="geometry">
            <mxPoint x="360" y="420" as="sourcePoint" />
            <mxPoint x="360" y="100" as="targetPoint" />
          </mxGeometry>
        </mxCell>
        <mxCell id="8pWqfnIADPwaS1QSFsII-6" value="" style="endArrow=none;html=1;rounded=0;strokeWidth=0.5;dashed=1;dashPattern=8 8;strokeColor=#595959;" parent="1" edge="1">
          <mxGeometry width="50" height="50" relative="1" as="geometry">
            <mxPoint x="280" y="420" as="sourcePoint" />
            <mxPoint x="280" y="100" as="targetPoint" />
          </mxGeometry>
        </mxCell>
        <mxCell id="8pWqfnIADPwaS1QSFsII-7" value="" style="endArrow=none;html=1;rounded=0;strokeWidth=0.5;dashed=1;dashPattern=8 8;strokeColor=#595959;" parent="1" edge="1">
          <mxGeometry width="50" height="50" relative="1" as="geometry">
            <mxPoint x="439" y="420" as="sourcePoint" />
            <mxPoint x="439.31" y="100" as="targetPoint" />
          </mxGeometry>
        </mxCell>
        <mxCell id="8pWqfnIADPwaS1QSFsII-8" value="" style="endArrow=none;html=1;rounded=0;strokeWidth=0.5;dashed=1;dashPattern=8 8;strokeColor=#595959;" parent="1" edge="1">
          <mxGeometry width="50" height="50" relative="1" as="geometry">
            <mxPoint x="479" y="420" as="sourcePoint" />
            <mxPoint x="479.31" y="100" as="targetPoint" />
          </mxGeometry>
        </mxCell>
        <mxCell id="8pWqfnIADPwaS1QSFsII-9" value="" style="endArrow=none;html=1;rounded=0;strokeWidth=0.5;dashed=1;dashPattern=8 8;strokeColor=#595959;" parent="1" edge="1">
          <mxGeometry width="50" height="50" relative="1" as="geometry">
            <mxPoint x="520" y="420" as="sourcePoint" />
            <mxPoint x="519.31" y="100" as="targetPoint" />
          </mxGeometry>
        </mxCell>
        <mxCell id="8pWqfnIADPwaS1QSFsII-10" value="&lt;p style=&quot;line-height: 100%;&quot;&gt;&lt;font style=&quot;font-size: 10px;&quot;&gt;Time Allocation&lt;/font&gt;&lt;/p&gt;" style="text;html=1;align=left;verticalAlign=middle;resizable=0;points=[];autosize=1;strokeColor=none;fillColor=none;fontSize=10;rounded=0;" parent="1" vertex="1">
          <mxGeometry x="120" y="140" width="90" height="40" as="geometry" />
        </mxCell>
        <mxCell id="8pWqfnIADPwaS1QSFsII-11" value="" style="endArrow=none;html=1;rounded=0;strokeWidth=1;endSize=6;jumpSize=6;" parent="1" edge="1">
          <mxGeometry width="50" height="50" relative="1" as="geometry">
            <mxPoint x="560" y="120" as="sourcePoint" />
            <mxPoint x="200" y="120" as="targetPoint" />
          </mxGeometry>
        </mxCell>
        <mxCell id="8pWqfnIADPwaS1QSFsII-12" value="Week (2023)" style="text;html=1;align=left;verticalAlign=middle;resizable=0;points=[];autosize=1;strokeColor=none;fillColor=none;fontStyle=1;rounded=0;" parent="1" vertex="1">
          <mxGeometry x="210" y="70" width="90" height="30" as="geometry" />
        </mxCell>
        <mxCell id="8pWqfnIADPwaS1QSFsII-13" value="Task" style="text;html=1;align=left;verticalAlign=middle;resizable=0;points=[];autosize=1;strokeColor=none;fillColor=none;fontStyle=1;rounded=0;" parent="1" vertex="1">
          <mxGeometry x="160" y="70" width="50" height="30" as="geometry" />
        </mxCell>
        <mxCell id="8pWqfnIADPwaS1QSFsII-14" value="&lt;font style=&quot;font-size: 10px;&quot;&gt;16/10&lt;/font&gt;" style="text;html=1;align=center;verticalAlign=middle;resizable=0;points=[];autosize=1;strokeColor=none;fillColor=none;spacing=0;rounded=0;" parent="1" vertex="1">
          <mxGeometry x="200" y="100" width="40" height="20" as="geometry" />
        </mxCell>
        <mxCell id="8pWqfnIADPwaS1QSFsII-15" value="" style="rounded=0;whiteSpace=wrap;html=1;fillColor=#dae8fc;strokeColor=#6c8ebf;" parent="1" vertex="1">
          <mxGeometry x="200" y="120" width="320" height="30" as="geometry" />
        </mxCell>
        <mxCell id="8pWqfnIADPwaS1QSFsII-18" value="Project Planning" style="text;html=1;align=left;verticalAlign=middle;resizable=0;points=[];autosize=1;strokeColor=none;fillColor=none;fontSize=10;fontStyle=1;rounded=0;" parent="1" vertex="1">
          <mxGeometry x="110" y="120" width="100" height="30" as="geometry" />
        </mxCell>
        <mxCell id="8pWqfnIADPwaS1QSFsII-19" value="&lt;p style=&quot;line-height: 100%;&quot;&gt;&lt;font style=&quot;font-size: 10px;&quot;&gt;Literature Review&lt;/font&gt;&lt;/p&gt;" style="text;html=1;align=left;verticalAlign=middle;resizable=0;points=[];autosize=1;strokeColor=none;fillColor=none;fontSize=10;rounded=0;" parent="1" vertex="1">
          <mxGeometry x="110" y="160" width="100" height="40" as="geometry" />
        </mxCell>
        <mxCell id="8pWqfnIADPwaS1QSFsII-20" value="&lt;p style=&quot;line-height: 100%;&quot;&gt;&lt;font style=&quot;font-size: 10px;&quot;&gt;Familiarisation of Tools&lt;/font&gt;&lt;/p&gt;" style="text;html=1;align=left;verticalAlign=middle;resizable=0;points=[];autosize=1;strokeColor=none;fillColor=none;fontSize=10;rounded=0;" parent="1" vertex="1">
          <mxGeometry x="85" y="180" width="130" height="40" as="geometry" />
        </mxCell>
        <mxCell id="8pWqfnIADPwaS1QSFsII-22" value="Design" style="text;html=1;align=left;verticalAlign=middle;resizable=0;points=[];autosize=1;strokeColor=none;fillColor=none;fontSize=10;fontStyle=1;rounded=0;" parent="1" vertex="1">
          <mxGeometry x="155" y="230" width="60" height="30" as="geometry" />
        </mxCell>
        <mxCell id="8pWqfnIADPwaS1QSFsII-24" value="&lt;p style=&quot;line-height: 100%;&quot;&gt;Prototyping&lt;/p&gt;" style="text;html=1;align=left;verticalAlign=middle;resizable=0;points=[];autosize=1;strokeColor=none;fillColor=none;fontSize=10;rounded=0;" parent="1" vertex="1">
          <mxGeometry x="140" y="250" width="70" height="40" as="geometry" />
        </mxCell>
        <mxCell id="8pWqfnIADPwaS1QSFsII-26" value="&lt;p style=&quot;line-height: 100%;&quot;&gt;Designing Test System&lt;/p&gt;" style="text;html=1;align=left;verticalAlign=middle;resizable=0;points=[];autosize=1;strokeColor=none;fillColor=none;fontSize=10;rounded=0;" parent="1" vertex="1">
          <mxGeometry x="90" y="270" width="130" height="40" as="geometry" />
        </mxCell>
        <mxCell id="8pWqfnIADPwaS1QSFsII-28" value="&lt;p style=&quot;line-height: 100%;&quot;&gt;Justification of&amp;nbsp; Tools and&amp;nbsp;&lt;span style=&quot;background-color: initial;&quot;&gt;Approach&lt;/span&gt;&lt;/p&gt;" style="text;html=1;align=left;verticalAlign=middle;resizable=0;points=[];autosize=1;strokeColor=none;fillColor=none;fontSize=10;rounded=0;" parent="1" vertex="1">
          <mxGeometry x="35" y="310" width="180" height="40" as="geometry" />
        </mxCell>
        <mxCell id="8pWqfnIADPwaS1QSFsII-29" value="&lt;p style=&quot;line-height: 100%;&quot;&gt;Designing Test Strategy&lt;/p&gt;" style="text;html=1;align=left;verticalAlign=middle;resizable=0;points=[];autosize=1;strokeColor=none;fillColor=none;fontSize=10;rounded=0;" parent="1" vertex="1">
          <mxGeometry x="85" y="290" width="130" height="40" as="geometry" />
        </mxCell>
        <mxCell id="8pWqfnIADPwaS1QSFsII-32" value="Progress Report" style="text;html=1;align=left;verticalAlign=middle;resizable=0;points=[];autosize=1;strokeColor=none;fillColor=none;fontSize=10;fontStyle=1;rounded=0;" parent="1" vertex="1">
          <mxGeometry x="110" y="340" width="100" height="30" as="geometry" />
        </mxCell>
        <mxCell id="8pWqfnIADPwaS1QSFsII-34" value="&lt;p style=&quot;line-height: 100%;&quot;&gt;Write Report&lt;/p&gt;" style="text;html=1;align=left;verticalAlign=middle;resizable=0;points=[];autosize=1;strokeColor=none;fillColor=none;fontSize=10;rounded=0;" parent="1" vertex="1">
          <mxGeometry x="130" y="360" width="80" height="40" as="geometry" />
        </mxCell>
        <mxCell id="8pWqfnIADPwaS1QSFsII-35" value="&lt;p style=&quot;line-height: 100%;&quot;&gt;Review &amp;amp; Handin&lt;/p&gt;" style="text;html=1;align=left;verticalAlign=middle;resizable=0;points=[];autosize=1;strokeColor=none;fillColor=none;fontSize=10;rounded=0;" parent="1" vertex="1">
          <mxGeometry x="110" y="380" width="100" height="40" as="geometry" />
        </mxCell>
        <mxCell id="8pWqfnIADPwaS1QSFsII-38" value="&lt;font style=&quot;font-size: 10px;&quot;&gt;11/12&lt;/font&gt;" style="text;html=1;align=center;verticalAlign=middle;resizable=0;points=[];autosize=1;strokeColor=none;fillColor=none;spacing=0;rounded=0;" parent="1" vertex="1">
          <mxGeometry x="520" y="100" width="40" height="20" as="geometry" />
        </mxCell>
        <mxCell id="8pWqfnIADPwaS1QSFsII-39" value="&lt;font style=&quot;font-size: 10px;&quot;&gt;23/10&lt;/font&gt;" style="text;html=1;align=center;verticalAlign=middle;resizable=0;points=[];autosize=1;strokeColor=none;fillColor=none;spacing=0;rounded=0;" parent="1" vertex="1">
          <mxGeometry x="240" y="100" width="40" height="20" as="geometry" />
        </mxCell>
        <mxCell id="8pWqfnIADPwaS1QSFsII-40" value="&lt;font style=&quot;font-size: 10px;&quot;&gt;30/10&lt;/font&gt;" style="text;html=1;align=center;verticalAlign=middle;resizable=0;points=[];autosize=1;strokeColor=none;fillColor=none;spacing=0;rounded=0;" parent="1" vertex="1">
          <mxGeometry x="280" y="100" width="40" height="20" as="geometry" />
        </mxCell>
        <mxCell id="8pWqfnIADPwaS1QSFsII-41" value="&lt;span style=&quot;font-size: 10px;&quot;&gt;06/11&lt;/span&gt;" style="text;html=1;align=center;verticalAlign=middle;resizable=0;points=[];autosize=1;strokeColor=none;fillColor=none;spacing=0;rounded=0;" parent="1" vertex="1">
          <mxGeometry x="320" y="100" width="40" height="20" as="geometry" />
        </mxCell>
        <mxCell id="8pWqfnIADPwaS1QSFsII-42" value="&lt;font style=&quot;font-size: 10px;&quot;&gt;13/11&lt;/font&gt;" style="text;html=1;align=center;verticalAlign=middle;resizable=0;points=[];autosize=1;strokeColor=none;fillColor=none;spacing=0;rounded=0;" parent="1" vertex="1">
          <mxGeometry x="360" y="100" width="40" height="20" as="geometry" />
        </mxCell>
        <mxCell id="8pWqfnIADPwaS1QSFsII-43" value="&lt;font style=&quot;font-size: 10px;&quot;&gt;20/11&lt;/font&gt;" style="text;html=1;align=center;verticalAlign=middle;resizable=0;points=[];autosize=1;strokeColor=none;fillColor=none;spacing=0;rounded=0;" parent="1" vertex="1">
          <mxGeometry x="400" y="100" width="40" height="20" as="geometry" />
        </mxCell>
        <mxCell id="8pWqfnIADPwaS1QSFsII-44" value="&lt;font style=&quot;font-size: 10px;&quot;&gt;27/11&lt;/font&gt;" style="text;html=1;align=center;verticalAlign=middle;resizable=0;points=[];autosize=1;strokeColor=none;fillColor=none;spacing=0;rounded=0;" parent="1" vertex="1">
          <mxGeometry x="440" y="100" width="40" height="20" as="geometry" />
        </mxCell>
        <mxCell id="8pWqfnIADPwaS1QSFsII-45" value="&lt;font style=&quot;font-size: 10px;&quot;&gt;04/12&lt;/font&gt;" style="text;html=1;align=center;verticalAlign=middle;resizable=0;points=[];autosize=1;strokeColor=none;fillColor=none;spacing=0;rounded=0;" parent="1" vertex="1">
          <mxGeometry x="480" y="100" width="40" height="20" as="geometry" />
        </mxCell>
        <mxCell id="8pWqfnIADPwaS1QSFsII-46" value="" style="endArrow=none;html=1;rounded=0;exitX=0.75;exitY=1.004;exitDx=0;exitDy=0;exitPerimeter=0;shadow=1;" parent="1" source="8pWqfnIADPwaS1QSFsII-88" edge="1">
          <mxGeometry width="50" height="50" relative="1" as="geometry">
            <mxPoint x="200" y="919" as="sourcePoint" />
            <mxPoint x="200" y="529" as="targetPoint" />
          </mxGeometry>
        </mxCell>
        <mxCell id="8pWqfnIADPwaS1QSFsII-47" value="" style="endArrow=none;html=1;rounded=0;strokeWidth=0.5;dashed=1;dashPattern=8 8;strokeColor=#595959;shadow=1;" parent="1" edge="1">
          <mxGeometry width="50" height="50" relative="1" as="geometry">
            <mxPoint x="240" y="890" as="sourcePoint" />
            <mxPoint x="240" y="530" as="targetPoint" />
          </mxGeometry>
        </mxCell>
        <mxCell id="8pWqfnIADPwaS1QSFsII-48" value="" style="endArrow=none;html=1;rounded=0;strokeWidth=0.5;dashed=1;dashPattern=8 8;strokeColor=#595959;shadow=1;" parent="1" edge="1">
          <mxGeometry width="50" height="50" relative="1" as="geometry">
            <mxPoint x="399" y="890" as="sourcePoint" />
            <mxPoint x="399.31" y="530" as="targetPoint" />
          </mxGeometry>
        </mxCell>
        <mxCell id="8pWqfnIADPwaS1QSFsII-49" value="" style="endArrow=none;html=1;rounded=0;strokeWidth=0.5;dashed=1;dashPattern=8 8;strokeColor=#595959;shadow=1;" parent="1" edge="1">
          <mxGeometry width="50" height="50" relative="1" as="geometry">
            <mxPoint x="320" y="890" as="sourcePoint" />
            <mxPoint x="319.65999999999997" y="530" as="targetPoint" />
          </mxGeometry>
        </mxCell>
        <mxCell id="8pWqfnIADPwaS1QSFsII-50" value="" style="endArrow=none;html=1;rounded=0;strokeWidth=0.5;dashed=1;dashPattern=8 8;strokeColor=#595959;shadow=1;" parent="1" edge="1">
          <mxGeometry width="50" height="50" relative="1" as="geometry">
            <mxPoint x="360" y="890" as="sourcePoint" />
            <mxPoint x="360" y="530" as="targetPoint" />
          </mxGeometry>
        </mxCell>
        <mxCell id="8pWqfnIADPwaS1QSFsII-51" value="" style="endArrow=none;html=1;rounded=0;strokeWidth=0.5;dashed=1;dashPattern=8 8;strokeColor=#595959;shadow=1;" parent="1" edge="1">
          <mxGeometry width="50" height="50" relative="1" as="geometry">
            <mxPoint x="280" y="890" as="sourcePoint" />
            <mxPoint x="280" y="530" as="targetPoint" />
          </mxGeometry>
        </mxCell>
        <mxCell id="8pWqfnIADPwaS1QSFsII-52" value="" style="endArrow=none;html=1;rounded=0;strokeWidth=0.5;dashed=1;dashPattern=8 8;strokeColor=#595959;shadow=1;" parent="1" edge="1">
          <mxGeometry width="50" height="50" relative="1" as="geometry">
            <mxPoint x="439" y="890" as="sourcePoint" />
            <mxPoint x="439.31" y="530" as="targetPoint" />
          </mxGeometry>
        </mxCell>
        <mxCell id="8pWqfnIADPwaS1QSFsII-55" value="" style="endArrow=none;html=1;rounded=0;strokeWidth=0.5;dashed=1;dashPattern=8 8;strokeColor=#595959;shadow=1;" parent="1" edge="1">
          <mxGeometry width="50" height="50" relative="1" as="geometry">
            <mxPoint x="560" y="890" as="sourcePoint" />
            <mxPoint x="560" y="530" as="targetPoint" />
          </mxGeometry>
        </mxCell>
        <mxCell id="8pWqfnIADPwaS1QSFsII-56" value="&lt;p style=&quot;line-height: 100%;&quot;&gt;System Design for Tests&lt;/p&gt;" style="text;html=1;align=left;verticalAlign=middle;resizable=0;points=[];autosize=1;strokeColor=none;fillColor=none;fontSize=10;rounded=0;shadow=1;" parent="1" vertex="1">
          <mxGeometry x="80" y="570" width="130" height="40" as="geometry" />
        </mxCell>
        <mxCell id="8pWqfnIADPwaS1QSFsII-57" value="" style="endArrow=none;html=1;rounded=0;strokeWidth=1;endSize=6;jumpSize=6;shadow=1;" parent="1" edge="1">
          <mxGeometry width="50" height="50" relative="1" as="geometry">
            <mxPoint x="800" y="550" as="sourcePoint" />
            <mxPoint x="200" y="550" as="targetPoint" />
          </mxGeometry>
        </mxCell>
        <mxCell id="8pWqfnIADPwaS1QSFsII-58" value="Week (2024)" style="text;html=1;align=left;verticalAlign=middle;resizable=0;points=[];autosize=1;strokeColor=none;fillColor=none;fontStyle=1;rounded=0;shadow=1;" parent="1" vertex="1">
          <mxGeometry x="210" y="500" width="90" height="30" as="geometry" />
        </mxCell>
        <mxCell id="8pWqfnIADPwaS1QSFsII-59" value="Task" style="text;html=1;align=left;verticalAlign=middle;resizable=0;points=[];autosize=1;strokeColor=none;fillColor=none;fontStyle=1;rounded=0;shadow=1;" parent="1" vertex="1">
          <mxGeometry x="165" y="500" width="50" height="30" as="geometry" />
        </mxCell>
        <mxCell id="8pWqfnIADPwaS1QSFsII-60" value="&lt;span style=&quot;font-size: 10px;&quot;&gt;08/01&lt;/span&gt;" style="text;html=1;align=center;verticalAlign=middle;resizable=0;points=[];autosize=1;strokeColor=none;fillColor=none;spacing=0;rounded=0;shadow=1;" parent="1" vertex="1">
          <mxGeometry x="200" y="530" width="40" height="20" as="geometry" />
        </mxCell>
        <mxCell id="8pWqfnIADPwaS1QSFsII-61" value="" style="rounded=0;whiteSpace=wrap;html=1;fillColor=#dae8fc;strokeColor=#6c8ebf;shadow=1;" parent="1" vertex="1">
          <mxGeometry x="300" y="550" width="300" height="30" as="geometry" />
        </mxCell>
        <mxCell id="8pWqfnIADPwaS1QSFsII-64" value="Implementation" style="text;html=1;align=left;verticalAlign=middle;resizable=0;points=[];autosize=1;strokeColor=none;fillColor=none;fontSize=10;fontStyle=1;rounded=0;shadow=1;" parent="1" vertex="1">
          <mxGeometry x="115" y="550" width="100" height="30" as="geometry" />
        </mxCell>
        <mxCell id="8pWqfnIADPwaS1QSFsII-65" value="&lt;p style=&quot;line-height: 100%;&quot;&gt;&lt;font style=&quot;font-size: 10px;&quot;&gt;Level 1 Tests&lt;/font&gt;&lt;/p&gt;" style="text;html=1;align=left;verticalAlign=middle;resizable=0;points=[];autosize=1;strokeColor=none;fillColor=none;fontSize=10;rounded=0;shadow=1;" parent="1" vertex="1">
          <mxGeometry x="130" y="590" width="80" height="40" as="geometry" />
        </mxCell>
        <mxCell id="8pWqfnIADPwaS1QSFsII-66" value="&lt;p style=&quot;line-height: 100%;&quot;&gt;Level 2 Tests&lt;br&gt;&lt;/p&gt;" style="text;html=1;align=left;verticalAlign=middle;resizable=0;points=[];autosize=1;strokeColor=none;fillColor=none;fontSize=10;rounded=0;shadow=1;" parent="1" vertex="1">
          <mxGeometry x="130" y="610" width="80" height="40" as="geometry" />
        </mxCell>
        <mxCell id="8pWqfnIADPwaS1QSFsII-68" value="Final Report" style="text;html=1;align=left;verticalAlign=middle;resizable=0;points=[];autosize=1;strokeColor=none;fillColor=none;fontSize=10;fontStyle=1;rounded=0;shadow=1;" parent="1" vertex="1">
          <mxGeometry x="130" y="700" width="80" height="30" as="geometry" />
        </mxCell>
        <mxCell id="8pWqfnIADPwaS1QSFsII-70" value="&lt;p style=&quot;line-height: 100%;&quot;&gt;Design&lt;/p&gt;" style="text;html=1;align=left;verticalAlign=middle;resizable=0;points=[];autosize=1;strokeColor=none;fillColor=none;fontSize=10;rounded=0;shadow=1;" parent="1" vertex="1">
          <mxGeometry x="155" y="740" width="50" height="40" as="geometry" />
        </mxCell>
        <mxCell id="8pWqfnIADPwaS1QSFsII-72" value="&lt;p style=&quot;line-height: 100%;&quot;&gt;Implementation &amp;amp; Report&lt;/p&gt;" style="text;html=1;align=left;verticalAlign=middle;resizable=0;points=[];autosize=1;strokeColor=none;fillColor=none;fontSize=10;rounded=0;shadow=1;" parent="1" vertex="1">
          <mxGeometry x="75" y="760" width="130" height="40" as="geometry" />
        </mxCell>
        <mxCell id="8pWqfnIADPwaS1QSFsII-73" value="&lt;p style=&quot;line-height: 100%;&quot;&gt;Review Project Aims&lt;/p&gt;" style="text;html=1;align=left;verticalAlign=middle;resizable=0;points=[];autosize=1;strokeColor=none;fillColor=none;fontSize=10;rounded=0;shadow=1;" parent="1" vertex="1">
          <mxGeometry x="95" y="800" width="110" height="40" as="geometry" />
        </mxCell>
        <mxCell id="8pWqfnIADPwaS1QSFsII-74" value="&lt;p style=&quot;line-height: 100%;&quot;&gt;Evaluate &amp;amp; Conclude&lt;/p&gt;" style="text;html=1;align=left;verticalAlign=middle;resizable=0;points=[];autosize=1;strokeColor=none;fillColor=none;fontSize=10;rounded=0;shadow=1;" parent="1" vertex="1">
          <mxGeometry x="95" y="720" width="120" height="40" as="geometry" />
        </mxCell>
        <mxCell id="8pWqfnIADPwaS1QSFsII-77" value="Handin" style="text;html=1;align=left;verticalAlign=middle;resizable=0;points=[];autosize=1;strokeColor=none;fillColor=none;fontSize=10;fontStyle=1;rounded=0;shadow=1;" parent="1" vertex="1">
          <mxGeometry x="155" y="830" width="60" height="30" as="geometry" />
        </mxCell>
        <mxCell id="8pWqfnIADPwaS1QSFsII-80" value="&lt;font style=&quot;font-size: 10px;&quot;&gt;04/03&lt;/font&gt;" style="text;html=1;align=center;verticalAlign=middle;resizable=0;points=[];autosize=1;strokeColor=none;fillColor=none;spacing=0;rounded=0;shadow=1;" parent="1" vertex="1">
          <mxGeometry x="520" y="530" width="40" height="20" as="geometry" />
        </mxCell>
        <mxCell id="8pWqfnIADPwaS1QSFsII-81" value="&lt;font style=&quot;font-size: 10px;&quot;&gt;15/01&lt;/font&gt;" style="text;html=1;align=center;verticalAlign=middle;resizable=0;points=[];autosize=1;strokeColor=none;fillColor=none;spacing=0;rounded=0;shadow=1;" parent="1" vertex="1">
          <mxGeometry x="240" y="530" width="40" height="20" as="geometry" />
        </mxCell>
        <mxCell id="8pWqfnIADPwaS1QSFsII-82" value="&lt;font style=&quot;font-size: 10px;&quot;&gt;22/01&lt;/font&gt;" style="text;html=1;align=center;verticalAlign=middle;resizable=0;points=[];autosize=1;strokeColor=none;fillColor=none;spacing=0;rounded=0;shadow=1;" parent="1" vertex="1">
          <mxGeometry x="280" y="530" width="40" height="20" as="geometry" />
        </mxCell>
        <mxCell id="8pWqfnIADPwaS1QSFsII-83" value="&lt;span style=&quot;font-size: 10px;&quot;&gt;29/01&lt;/span&gt;" style="text;html=1;align=center;verticalAlign=middle;resizable=0;points=[];autosize=1;strokeColor=none;fillColor=none;spacing=0;rounded=0;shadow=1;" parent="1" vertex="1">
          <mxGeometry x="320" y="530" width="40" height="20" as="geometry" />
        </mxCell>
        <mxCell id="8pWqfnIADPwaS1QSFsII-84" value="&lt;font style=&quot;font-size: 10px;&quot;&gt;05/02&lt;/font&gt;" style="text;html=1;align=center;verticalAlign=middle;resizable=0;points=[];autosize=1;strokeColor=none;fillColor=none;spacing=0;rounded=0;shadow=1;" parent="1" vertex="1">
          <mxGeometry x="360" y="530" width="40" height="20" as="geometry" />
        </mxCell>
        <mxCell id="8pWqfnIADPwaS1QSFsII-85" value="&lt;font style=&quot;font-size: 10px;&quot;&gt;12/02&lt;/font&gt;" style="text;html=1;align=center;verticalAlign=middle;resizable=0;points=[];autosize=1;strokeColor=none;fillColor=none;spacing=0;rounded=0;shadow=1;" parent="1" vertex="1">
          <mxGeometry x="400" y="530" width="40" height="20" as="geometry" />
        </mxCell>
        <mxCell id="8pWqfnIADPwaS1QSFsII-86" value="&lt;font style=&quot;font-size: 10px;&quot;&gt;19/02&lt;/font&gt;" style="text;html=1;align=center;verticalAlign=middle;resizable=0;points=[];autosize=1;strokeColor=none;fillColor=none;spacing=0;rounded=0;shadow=1;" parent="1" vertex="1">
          <mxGeometry x="440" y="530" width="40" height="20" as="geometry" />
        </mxCell>
        <mxCell id="8pWqfnIADPwaS1QSFsII-87" value="&lt;font style=&quot;font-size: 10px;&quot;&gt;26/02&lt;/font&gt;" style="text;html=1;align=center;verticalAlign=middle;resizable=0;points=[];autosize=1;strokeColor=none;fillColor=none;spacing=0;rounded=0;shadow=1;" parent="1" vertex="1">
          <mxGeometry x="480" y="530" width="40" height="20" as="geometry" />
        </mxCell>
        <mxCell id="8pWqfnIADPwaS1QSFsII-88" value="Viva" style="text;html=1;align=left;verticalAlign=middle;resizable=0;points=[];autosize=1;strokeColor=none;fillColor=none;fontSize=10;fontStyle=1;rounded=0;shadow=1;" parent="1" vertex="1">
          <mxGeometry x="170" y="860" width="40" height="30" as="geometry" />
        </mxCell>
        <mxCell id="8pWqfnIADPwaS1QSFsII-89" value="&lt;p style=&quot;line-height: 100%;&quot;&gt;Review Research&lt;/p&gt;" style="text;html=1;align=left;verticalAlign=middle;resizable=0;points=[];autosize=1;strokeColor=none;fillColor=none;fontSize=10;rounded=0;shadow=1;" parent="1" vertex="1">
          <mxGeometry x="110" y="780" width="100" height="40" as="geometry" />
        </mxCell>
        <mxCell id="8pWqfnIADPwaS1QSFsII-90" value="&lt;font style=&quot;font-size: 10px;&quot;&gt;11/03&lt;/font&gt;" style="text;html=1;align=center;verticalAlign=middle;resizable=0;points=[];autosize=1;strokeColor=none;fillColor=none;spacing=0;rounded=0;shadow=1;" parent="1" vertex="1">
          <mxGeometry x="560" y="530" width="40" height="20" as="geometry" />
        </mxCell>
        <mxCell id="8pWqfnIADPwaS1QSFsII-91" value="&lt;font style=&quot;font-size: 10px;&quot;&gt;18/03&lt;/font&gt;" style="text;html=1;align=center;verticalAlign=middle;resizable=0;points=[];autosize=1;strokeColor=none;fillColor=none;spacing=0;rounded=0;shadow=1;" parent="1" vertex="1">
          <mxGeometry x="600" y="530" width="40" height="20" as="geometry" />
        </mxCell>
        <mxCell id="8pWqfnIADPwaS1QSFsII-92" value="&lt;font style=&quot;font-size: 10px;&quot;&gt;22/04&lt;/font&gt;" style="text;html=1;align=center;verticalAlign=middle;resizable=0;points=[];autosize=1;strokeColor=none;fillColor=none;spacing=0;rounded=0;shadow=1;" parent="1" vertex="1">
          <mxGeometry x="640" y="530" width="40" height="20" as="geometry" />
        </mxCell>
        <mxCell id="8pWqfnIADPwaS1QSFsII-93" value="&lt;font style=&quot;font-size: 10px;&quot;&gt;06/05&lt;/font&gt;" style="text;html=1;align=center;verticalAlign=middle;resizable=0;points=[];autosize=1;strokeColor=none;fillColor=none;spacing=0;rounded=0;shadow=1;" parent="1" vertex="1">
          <mxGeometry x="720" y="530" width="40" height="20" as="geometry" />
        </mxCell>
        <mxCell id="8pWqfnIADPwaS1QSFsII-94" value="&lt;font style=&quot;font-size: 10px;&quot;&gt;29/04&lt;/font&gt;" style="text;html=1;align=center;verticalAlign=middle;resizable=0;points=[];autosize=1;strokeColor=none;fillColor=none;spacing=0;rounded=0;shadow=1;" parent="1" vertex="1">
          <mxGeometry x="680" y="530" width="40" height="20" as="geometry" />
        </mxCell>
        <mxCell id="8pWqfnIADPwaS1QSFsII-95" value="&lt;font style=&quot;font-size: 10px;&quot;&gt;13/05&lt;/font&gt;" style="text;html=1;align=center;verticalAlign=middle;resizable=0;points=[];autosize=1;strokeColor=none;fillColor=none;spacing=0;rounded=0;shadow=1;" parent="1" vertex="1">
          <mxGeometry x="760" y="530" width="40" height="20" as="geometry" />
        </mxCell>
        <mxCell id="8pWqfnIADPwaS1QSFsII-96" value="" style="endArrow=none;html=1;rounded=0;strokeWidth=0.5;dashed=1;dashPattern=8 8;strokeColor=#595959;shadow=1;" parent="1" edge="1">
          <mxGeometry width="50" height="50" relative="1" as="geometry">
            <mxPoint x="600" y="890" as="sourcePoint" />
            <mxPoint x="600" y="530" as="targetPoint" />
          </mxGeometry>
        </mxCell>
        <mxCell id="8pWqfnIADPwaS1QSFsII-97" value="" style="endArrow=none;html=1;rounded=0;strokeWidth=1;dashed=1;dashPattern=8 8;strokeColor=#595959;shadow=1;" parent="1" edge="1">
          <mxGeometry width="50" height="50" relative="1" as="geometry">
            <mxPoint x="640" y="890" as="sourcePoint" />
            <mxPoint x="640" y="530" as="targetPoint" />
          </mxGeometry>
        </mxCell>
        <mxCell id="8pWqfnIADPwaS1QSFsII-98" value="" style="endArrow=none;html=1;rounded=0;strokeWidth=0.5;dashed=1;dashPattern=8 8;strokeColor=#595959;shadow=1;" parent="1" edge="1">
          <mxGeometry width="50" height="50" relative="1" as="geometry">
            <mxPoint x="680" y="890" as="sourcePoint" />
            <mxPoint x="680" y="530" as="targetPoint" />
          </mxGeometry>
        </mxCell>
        <mxCell id="8pWqfnIADPwaS1QSFsII-99" value="" style="endArrow=none;html=1;rounded=0;strokeWidth=0.5;dashed=1;dashPattern=8 8;strokeColor=#595959;shadow=1;" parent="1" edge="1">
          <mxGeometry width="50" height="50" relative="1" as="geometry">
            <mxPoint x="720" y="890" as="sourcePoint" />
            <mxPoint x="720" y="530" as="targetPoint" />
          </mxGeometry>
        </mxCell>
        <mxCell id="8pWqfnIADPwaS1QSFsII-100" value="" style="endArrow=none;html=1;rounded=0;strokeWidth=0.5;dashed=1;dashPattern=8 8;strokeColor=#595959;shadow=1;" parent="1" edge="1">
          <mxGeometry width="50" height="50" relative="1" as="geometry">
            <mxPoint x="760" y="890" as="sourcePoint" />
            <mxPoint x="760" y="530" as="targetPoint" />
          </mxGeometry>
        </mxCell>
        <mxCell id="8pWqfnIADPwaS1QSFsII-113" value="" style="rounded=0;whiteSpace=wrap;html=1;" parent="1" vertex="1">
          <mxGeometry x="570" y="120" width="120" height="100" as="geometry" />
        </mxCell>
        <mxCell id="8pWqfnIADPwaS1QSFsII-114" value="" style="rounded=0;whiteSpace=wrap;html=1;fillColor=#FF3333;strokeColor=#b85450;" parent="1" vertex="1">
          <mxGeometry x="580" y="150" width="30" height="10" as="geometry" />
        </mxCell>
        <mxCell id="8pWqfnIADPwaS1QSFsII-115" value="" style="rounded=0;whiteSpace=wrap;html=1;fillColor=#00CC00;strokeColor=#82b366;" parent="1" vertex="1">
          <mxGeometry x="580" y="200" width="30" height="10" as="geometry" />
        </mxCell>
        <mxCell id="8pWqfnIADPwaS1QSFsII-116" value="" style="rounded=0;whiteSpace=wrap;html=1;fillColor=#FF8000;strokeColor=#d6b656;" parent="1" vertex="1">
          <mxGeometry x="580" y="175" width="30" height="10" as="geometry" />
        </mxCell>
        <mxCell id="8pWqfnIADPwaS1QSFsII-117" value="&lt;font style=&quot;font-size: 8px;&quot;&gt;Major Overrun&lt;/font&gt;" style="text;html=1;align=left;verticalAlign=middle;resizable=0;points=[];autosize=1;strokeColor=none;fillColor=none;rounded=0;" parent="1" vertex="1">
          <mxGeometry x="620" y="140" width="70" height="30" as="geometry" />
        </mxCell>
        <mxCell id="8pWqfnIADPwaS1QSFsII-118" value="&lt;font style=&quot;font-size: 8px;&quot;&gt;Minor Overrun&lt;/font&gt;" style="text;html=1;align=left;verticalAlign=middle;resizable=0;points=[];autosize=1;strokeColor=none;fillColor=none;rounded=0;" parent="1" vertex="1">
          <mxGeometry x="620" y="165" width="70" height="30" as="geometry" />
        </mxCell>
        <mxCell id="8pWqfnIADPwaS1QSFsII-119" value="&lt;span style=&quot;font-size: 8px;&quot;&gt;On Target&lt;/span&gt;" style="text;html=1;align=left;verticalAlign=middle;resizable=0;points=[];autosize=1;strokeColor=none;fillColor=none;rounded=0;" parent="1" vertex="1">
          <mxGeometry x="620" y="190" width="60" height="30" as="geometry" />
        </mxCell>
        <mxCell id="8pWqfnIADPwaS1QSFsII-120" value="&lt;b&gt;&lt;font style=&quot;font-size: 10px;&quot;&gt;Work Completed&lt;/font&gt;&lt;/b&gt;" style="text;html=1;align=left;verticalAlign=middle;resizable=0;points=[];autosize=1;strokeColor=none;fillColor=none;rounded=0;" parent="1" vertex="1">
          <mxGeometry x="580" y="120" width="100" height="30" as="geometry" />
        </mxCell>
        <mxCell id="8pWqfnIADPwaS1QSFsII-121" value="&lt;p style=&quot;line-height: 100%;&quot;&gt;&lt;font style=&quot;font-size: 10px;&quot;&gt;Risk Analysis&lt;/font&gt;&lt;/p&gt;" style="text;html=1;align=left;verticalAlign=middle;resizable=0;points=[];autosize=1;strokeColor=none;fillColor=none;fontSize=10;rounded=0;" parent="1" vertex="1">
          <mxGeometry x="130" y="200" width="80" height="40" as="geometry" />
        </mxCell>
        <mxCell id="8pWqfnIADPwaS1QSFsII-122" value="" style="endArrow=none;html=1;rounded=0;strokeWidth=0.5;dashed=1;dashPattern=8 8;strokeColor=#595959;" parent="1" edge="1">
          <mxGeometry width="50" height="50" relative="1" as="geometry">
            <mxPoint x="560" y="420" as="sourcePoint" />
            <mxPoint x="559.31" y="100" as="targetPoint" />
          </mxGeometry>
        </mxCell>
        <mxCell id="8pWqfnIADPwaS1QSFsII-124" value="" style="rounded=0;whiteSpace=wrap;html=1;" parent="1" vertex="1">
          <mxGeometry x="200" y="150" width="40" height="20" as="geometry" />
        </mxCell>
        <mxCell id="8pWqfnIADPwaS1QSFsII-125" value="" style="rounded=0;whiteSpace=wrap;html=1;" parent="1" vertex="1">
          <mxGeometry x="240" y="170" width="100" height="20" as="geometry" />
        </mxCell>
        <mxCell id="8pWqfnIADPwaS1QSFsII-126" value="" style="rounded=0;whiteSpace=wrap;html=1;" parent="1" vertex="1">
          <mxGeometry x="280" y="190" width="60" height="20" as="geometry" />
        </mxCell>
        <mxCell id="8pWqfnIADPwaS1QSFsII-127" value="" style="rounded=0;whiteSpace=wrap;html=1;" parent="1" vertex="1">
          <mxGeometry x="440" y="210" width="80" height="20" as="geometry" />
        </mxCell>
        <mxCell id="8pWqfnIADPwaS1QSFsII-128" value="" style="rounded=0;whiteSpace=wrap;html=1;" parent="1" vertex="1">
          <mxGeometry x="380" y="190" width="60" height="20" as="geometry" />
        </mxCell>
        <mxCell id="8pWqfnIADPwaS1QSFsII-129" value="" style="rounded=0;whiteSpace=wrap;html=1;" parent="1" vertex="1">
          <mxGeometry x="380" y="170" width="60" height="20" as="geometry" />
        </mxCell>
        <mxCell id="8pWqfnIADPwaS1QSFsII-130" value="Time Left For COMP3204 Coursework" style="text;html=1;align=center;verticalAlign=middle;resizable=0;points=[];autosize=1;strokeColor=none;fillColor=none;rounded=0;" parent="1" vertex="1">
          <mxGeometry x="370" y="70" width="230" height="30" as="geometry" />
        </mxCell>
        <mxCell id="8pWqfnIADPwaS1QSFsII-132" value="" style="edgeStyle=none;orthogonalLoop=1;jettySize=auto;html=1;rounded=0;" parent="1" edge="1">
          <mxGeometry width="100" relative="1" as="geometry">
            <mxPoint x="385" y="93" as="sourcePoint" />
            <mxPoint x="364" y="169" as="targetPoint" />
            <Array as="points" />
          </mxGeometry>
        </mxCell>
        <mxCell id="8pWqfnIADPwaS1QSFsII-133" value="" style="rounded=0;whiteSpace=wrap;html=1;fillColor=#dae8fc;strokeColor=#6c8ebf;" parent="1" vertex="1">
          <mxGeometry x="280" y="230" width="240" height="30" as="geometry" />
        </mxCell>
        <mxCell id="8pWqfnIADPwaS1QSFsII-134" value="" style="rounded=0;whiteSpace=wrap;html=1;" parent="1" vertex="1">
          <mxGeometry x="380" y="260" width="60" height="20" as="geometry" />
        </mxCell>
        <mxCell id="8pWqfnIADPwaS1QSFsII-135" value="" style="rounded=0;whiteSpace=wrap;html=1;" parent="1" vertex="1">
          <mxGeometry x="380" y="280" width="60" height="20" as="geometry" />
        </mxCell>
        <mxCell id="8pWqfnIADPwaS1QSFsII-137" value="" style="rounded=0;whiteSpace=wrap;html=1;" parent="1" vertex="1">
          <mxGeometry x="400" y="300" width="60" height="20" as="geometry" />
        </mxCell>
        <mxCell id="8pWqfnIADPwaS1QSFsII-138" value="" style="rounded=0;whiteSpace=wrap;html=1;" parent="1" vertex="1">
          <mxGeometry x="320" y="260" width="20" height="20" as="geometry" />
        </mxCell>
        <mxCell id="8pWqfnIADPwaS1QSFsII-139" value="" style="rounded=0;whiteSpace=wrap;html=1;" parent="1" vertex="1">
          <mxGeometry x="460" y="320" width="60" height="20" as="geometry" />
        </mxCell>
        <mxCell id="8pWqfnIADPwaS1QSFsII-140" value="" style="rounded=0;whiteSpace=wrap;html=1;fillColor=#dae8fc;strokeColor=#6c8ebf;" parent="1" vertex="1">
          <mxGeometry x="460" y="340" width="100" height="30" as="geometry" />
        </mxCell>
        <mxCell id="8pWqfnIADPwaS1QSFsII-141" value="" style="rounded=0;whiteSpace=wrap;html=1;" parent="1" vertex="1">
          <mxGeometry x="460" y="370" width="70" height="20" as="geometry" />
        </mxCell>
        <mxCell id="8pWqfnIADPwaS1QSFsII-142" value="" style="rounded=0;whiteSpace=wrap;html=1;" parent="1" vertex="1">
          <mxGeometry x="500" y="390" width="60" height="20" as="geometry" />
        </mxCell>
        <mxCell id="8pWqfnIADPwaS1QSFsII-144" value="" style="rounded=0;whiteSpace=wrap;html=1;fillColor=#FF8000;strokeColor=#d6b656;" parent="1" vertex="1">
          <mxGeometry x="215" y="155" width="50" height="10" as="geometry" />
        </mxCell>
        <mxCell id="8pWqfnIADPwaS1QSFsII-145" value="" style="rounded=0;whiteSpace=wrap;html=1;fillColor=#FF8000;strokeColor=#d6b656;" parent="1" vertex="1">
          <mxGeometry x="260" y="175" width="80" height="10" as="geometry" />
        </mxCell>
        <mxCell id="8pWqfnIADPwaS1QSFsII-146" value="" style="rounded=0;whiteSpace=wrap;html=1;fillColor=#FF8000;strokeColor=#d6b656;" parent="1" vertex="1">
          <mxGeometry x="380" y="175" width="110" height="10" as="geometry" />
        </mxCell>
        <mxCell id="8pWqfnIADPwaS1QSFsII-149" value="" style="rounded=0;whiteSpace=wrap;html=1;fillColor=#00CC00;strokeColor=#82b366;" parent="1" vertex="1">
          <mxGeometry x="380" y="195" width="60" height="10" as="geometry" />
        </mxCell>
        <mxCell id="8pWqfnIADPwaS1QSFsII-150" value="" style="rounded=0;whiteSpace=wrap;html=1;fillColor=#00CC00;strokeColor=#82b366;" parent="1" vertex="1">
          <mxGeometry x="280" y="195" width="60" height="10" as="geometry" />
        </mxCell>
        <mxCell id="8pWqfnIADPwaS1QSFsII-152" value="" style="rounded=0;whiteSpace=wrap;html=1;fillColor=#00CC00;strokeColor=#82b366;" parent="1" vertex="1">
          <mxGeometry x="480" y="215" width="40" height="10" as="geometry" />
        </mxCell>
        <mxCell id="8pWqfnIADPwaS1QSFsII-154" value="" style="rounded=0;whiteSpace=wrap;html=1;fillColor=#FF8000;strokeColor=#d6b656;" parent="1" vertex="1">
          <mxGeometry x="380" y="265" width="100" height="10" as="geometry" />
        </mxCell>
        <mxCell id="8pWqfnIADPwaS1QSFsII-155" value="" style="rounded=0;whiteSpace=wrap;html=1;fillColor=#FF8000;strokeColor=#d6b656;" parent="1" vertex="1">
          <mxGeometry x="410" y="285" width="110" height="10" as="geometry" />
        </mxCell>
        <mxCell id="8pWqfnIADPwaS1QSFsII-156" value="" style="rounded=0;whiteSpace=wrap;html=1;fillColor=#FF8000;strokeColor=#d6b656;" parent="1" vertex="1">
          <mxGeometry x="430" y="305" width="90" height="10" as="geometry" />
        </mxCell>
        <mxCell id="8pWqfnIADPwaS1QSFsII-157" value="" style="rounded=0;whiteSpace=wrap;html=1;fillColor=#FF8000;strokeColor=#d6b656;" parent="1" vertex="1">
          <mxGeometry x="480" y="325" width="60" height="10" as="geometry" />
        </mxCell>
        <mxCell id="8pWqfnIADPwaS1QSFsII-158" value="" style="rounded=0;whiteSpace=wrap;html=1;fillColor=#00CC00;strokeColor=#82b366;" parent="1" vertex="1">
          <mxGeometry x="530" y="395" width="30" height="10" as="geometry" />
        </mxCell>
        <mxCell id="8pWqfnIADPwaS1QSFsII-159" value="" style="rounded=0;whiteSpace=wrap;html=1;fillColor=#FF8000;strokeColor=#d6b656;" parent="1" vertex="1">
          <mxGeometry x="460" y="375" width="80" height="10" as="geometry" />
        </mxCell>
        <mxCell id="8pWqfnIADPwaS1QSFsII-164" value="&lt;p style=&quot;line-height: 100%;&quot;&gt;Level 3 Tests&lt;br&gt;&lt;/p&gt;" style="text;html=1;align=left;verticalAlign=middle;resizable=0;points=[];autosize=1;strokeColor=none;fillColor=none;fontSize=10;rounded=0;shadow=1;" parent="1" vertex="1">
          <mxGeometry x="130" y="630" width="80" height="40" as="geometry" />
        </mxCell>
        <mxCell id="8pWqfnIADPwaS1QSFsII-165" value="&lt;p style=&quot;line-height: 100%;&quot;&gt;Level 4 Tests&lt;br&gt;&lt;/p&gt;" style="text;html=1;align=left;verticalAlign=middle;resizable=0;points=[];autosize=1;strokeColor=none;fillColor=none;fontSize=10;rounded=0;shadow=1;" parent="1" vertex="1">
          <mxGeometry x="130" y="649" width="76" height="42" as="geometry" />
        </mxCell>
        <mxCell id="8pWqfnIADPwaS1QSFsII-166" value="&lt;p style=&quot;line-height: 100%;&quot;&gt;Comapre results &amp;amp; Evaluate&lt;/p&gt;" style="text;html=1;align=left;verticalAlign=middle;resizable=0;points=[];autosize=1;strokeColor=none;fillColor=none;fontSize=10;rounded=0;shadow=1;" parent="1" vertex="1">
          <mxGeometry x="65" y="670" width="150" height="40" as="geometry" />
        </mxCell>
        <mxCell id="8pWqfnIADPwaS1QSFsII-167" value="" style="rounded=0;whiteSpace=wrap;html=1;shadow=1;" parent="1" vertex="1">
          <mxGeometry x="300" y="580" width="160" height="20" as="geometry" />
        </mxCell>
        <mxCell id="8pWqfnIADPwaS1QSFsII-168" value="Last exam, date unkown but 26th Jan Latest." style="text;html=1;align=center;verticalAlign=middle;resizable=0;points=[];autosize=1;strokeColor=none;fillColor=none;rounded=0;shadow=1;" parent="1" vertex="1">
          <mxGeometry x="320" y="500" width="260" height="30" as="geometry" />
        </mxCell>
        <mxCell id="8pWqfnIADPwaS1QSFsII-169" value="" style="edgeStyle=none;orthogonalLoop=1;jettySize=auto;html=1;rounded=0;shadow=1;" parent="1" edge="1">
          <mxGeometry width="100" relative="1" as="geometry">
            <mxPoint x="331" y="524" as="sourcePoint" />
            <mxPoint x="307" y="567" as="targetPoint" />
            <Array as="points" />
          </mxGeometry>
        </mxCell>
        <mxCell id="8pWqfnIADPwaS1QSFsII-171" value="" style="rounded=0;whiteSpace=wrap;html=1;shadow=1;" parent="1" vertex="1">
          <mxGeometry x="420" y="600" width="60" height="20" as="geometry" />
        </mxCell>
        <mxCell id="8pWqfnIADPwaS1QSFsII-173" value="" style="rounded=0;whiteSpace=wrap;html=1;shadow=1;" parent="1" vertex="1">
          <mxGeometry x="460" y="640" width="60" height="20" as="geometry" />
        </mxCell>
        <mxCell id="8pWqfnIADPwaS1QSFsII-172" value="" style="rounded=0;whiteSpace=wrap;html=1;shadow=1;" parent="1" vertex="1">
          <mxGeometry x="440" y="620" width="60" height="20" as="geometry" />
        </mxCell>
        <mxCell id="8pWqfnIADPwaS1QSFsII-177" value="" style="rounded=0;whiteSpace=wrap;html=1;shadow=1;" parent="1" vertex="1">
          <mxGeometry x="520" y="680" width="60" height="20" as="geometry" />
        </mxCell>
        <mxCell id="8pWqfnIADPwaS1QSFsII-183" style="edgeStyle=orthogonalEdgeStyle;orthogonalLoop=1;jettySize=auto;html=1;exitX=0;exitY=0.25;exitDx=0;exitDy=0;shadow=1;" parent="1" source="8pWqfnIADPwaS1QSFsII-178" edge="1">
          <mxGeometry relative="1" as="geometry">
            <mxPoint x="519.6666666666667" y="707.6666666666667" as="targetPoint" />
          </mxGeometry>
        </mxCell>
        <mxCell id="8pWqfnIADPwaS1QSFsII-178" value="" style="rounded=0;whiteSpace=wrap;html=1;fillColor=#dae8fc;strokeColor=#6c8ebf;shadow=1;" parent="1" vertex="1">
          <mxGeometry x="520" y="700" width="160" height="30" as="geometry" />
        </mxCell>
        <mxCell id="8pWqfnIADPwaS1QSFsII-179" value="" style="rounded=0;whiteSpace=wrap;html=1;shadow=1;" parent="1" vertex="1">
          <mxGeometry x="520" y="730" width="80" height="20" as="geometry" />
        </mxCell>
        <mxCell id="8pWqfnIADPwaS1QSFsII-180" value="" style="endArrow=none;html=1;rounded=0;strokeWidth=0.5;dashed=1;dashPattern=8 8;strokeColor=#595959;shadow=1;" parent="1" edge="1">
          <mxGeometry width="50" height="50" relative="1" as="geometry">
            <mxPoint x="480" y="890" as="sourcePoint" />
            <mxPoint x="479.66" y="530" as="targetPoint" />
          </mxGeometry>
        </mxCell>
        <mxCell id="8pWqfnIADPwaS1QSFsII-182" value="" style="endArrow=none;html=1;rounded=0;strokeWidth=0.5;dashed=1;dashPattern=8 8;strokeColor=#595959;shadow=1;" parent="1" edge="1">
          <mxGeometry width="50" height="50" relative="1" as="geometry">
            <mxPoint x="800" y="890" as="sourcePoint" />
            <mxPoint x="800" y="530" as="targetPoint" />
          </mxGeometry>
        </mxCell>
        <mxCell id="8pWqfnIADPwaS1QSFsII-175" value="" style="rounded=0;whiteSpace=wrap;html=1;shadow=1;" parent="1" vertex="1">
          <mxGeometry x="480" y="660" width="60" height="20" as="geometry" />
        </mxCell>
        <mxCell id="8pWqfnIADPwaS1QSFsII-185" value="" style="endArrow=none;html=1;rounded=0;strokeWidth=0.5;dashed=1;dashPattern=8 8;strokeColor=#595959;shadow=1;" parent="1" edge="1">
          <mxGeometry width="50" height="50" relative="1" as="geometry">
            <mxPoint x="519" y="890" as="sourcePoint" />
            <mxPoint x="519.1700000000001" y="530" as="targetPoint" />
          </mxGeometry>
        </mxCell>
        <mxCell id="8pWqfnIADPwaS1QSFsII-187" value="" style="rounded=0;whiteSpace=wrap;html=1;shadow=1;" parent="1" vertex="1">
          <mxGeometry x="560" y="750" width="80" height="20" as="geometry" />
        </mxCell>
        <mxCell id="8pWqfnIADPwaS1QSFsII-188" value="" style="rounded=0;whiteSpace=wrap;html=1;shadow=1;" parent="1" vertex="1">
          <mxGeometry x="580" y="770" width="60" height="20" as="geometry" />
        </mxCell>
        <mxCell id="8pWqfnIADPwaS1QSFsII-189" value="" style="rounded=0;whiteSpace=wrap;html=1;shadow=1;" parent="1" vertex="1">
          <mxGeometry x="580" y="790" width="60" height="20" as="geometry" />
        </mxCell>
        <mxCell id="8pWqfnIADPwaS1QSFsII-190" value="" style="rounded=0;whiteSpace=wrap;html=1;shadow=1;" parent="1" vertex="1">
          <mxGeometry x="610" y="810" width="50" height="20" as="geometry" />
        </mxCell>
        <mxCell id="8pWqfnIADPwaS1QSFsII-191" value="" style="rounded=0;whiteSpace=wrap;html=1;fillColor=#dae8fc;strokeColor=#6c8ebf;shadow=1;" parent="1" vertex="1">
          <mxGeometry x="660" y="830" width="30" height="30" as="geometry" />
        </mxCell>
        <mxCell id="XczhMHpNAEnqqgj0WqHP-1" value="" style="endArrow=none;html=1;rounded=0;exitX=0.75;exitY=1.004;exitDx=0;exitDy=0;exitPerimeter=0;entryX=0.601;entryY=1.002;entryDx=0;entryDy=0;entryPerimeter=0;shadow=1;" parent="1" source="XczhMHpNAEnqqgj0WqHP-32" target="XczhMHpNAEnqqgj0WqHP-12" edge="1">
          <mxGeometry width="50" height="50" relative="1" as="geometry">
            <mxPoint x="1125" y="938.94" as="sourcePoint" />
            <mxPoint x="1125" y="548.94" as="targetPoint" />
          </mxGeometry>
        </mxCell>
        <mxCell id="XczhMHpNAEnqqgj0WqHP-2" value="" style="endArrow=none;html=1;rounded=0;strokeWidth=0.5;dashed=1;dashPattern=8 8;strokeColor=#595959;shadow=1;" parent="1" edge="1">
          <mxGeometry width="50" height="50" relative="1" as="geometry">
            <mxPoint x="1160" y="909.94" as="sourcePoint" />
            <mxPoint x="1160" y="549.94" as="targetPoint" />
          </mxGeometry>
        </mxCell>
        <mxCell id="XczhMHpNAEnqqgj0WqHP-3" value="" style="endArrow=none;html=1;rounded=0;strokeWidth=0.5;dashed=1;dashPattern=8 8;strokeColor=#595959;shadow=1;" parent="1" edge="1">
          <mxGeometry width="50" height="50" relative="1" as="geometry">
            <mxPoint x="1319" y="909.94" as="sourcePoint" />
            <mxPoint x="1319.31" y="549.94" as="targetPoint" />
          </mxGeometry>
        </mxCell>
        <mxCell id="XczhMHpNAEnqqgj0WqHP-4" value="" style="endArrow=none;html=1;rounded=0;strokeWidth=0.5;dashed=1;dashPattern=8 8;strokeColor=#595959;shadow=1;" parent="1" edge="1">
          <mxGeometry width="50" height="50" relative="1" as="geometry">
            <mxPoint x="1240" y="909.94" as="sourcePoint" />
            <mxPoint x="1239.6599999999999" y="549.94" as="targetPoint" />
          </mxGeometry>
        </mxCell>
        <mxCell id="XczhMHpNAEnqqgj0WqHP-5" value="" style="endArrow=none;html=1;rounded=0;strokeWidth=0.5;dashed=1;dashPattern=8 8;strokeColor=#595959;shadow=1;" parent="1" edge="1">
          <mxGeometry width="50" height="50" relative="1" as="geometry">
            <mxPoint x="1280" y="909.94" as="sourcePoint" />
            <mxPoint x="1280" y="549.94" as="targetPoint" />
          </mxGeometry>
        </mxCell>
        <mxCell id="XczhMHpNAEnqqgj0WqHP-6" value="" style="endArrow=none;html=1;rounded=0;strokeWidth=0.5;dashed=1;dashPattern=8 8;strokeColor=#595959;shadow=1;" parent="1" edge="1">
          <mxGeometry width="50" height="50" relative="1" as="geometry">
            <mxPoint x="1200" y="909.94" as="sourcePoint" />
            <mxPoint x="1200" y="549.94" as="targetPoint" />
          </mxGeometry>
        </mxCell>
        <mxCell id="XczhMHpNAEnqqgj0WqHP-7" value="" style="endArrow=none;html=1;rounded=0;strokeWidth=0.5;dashed=1;dashPattern=8 8;strokeColor=#595959;shadow=1;" parent="1" edge="1">
          <mxGeometry width="50" height="50" relative="1" as="geometry">
            <mxPoint x="1359" y="909.94" as="sourcePoint" />
            <mxPoint x="1359.31" y="549.94" as="targetPoint" />
          </mxGeometry>
        </mxCell>
        <mxCell id="XczhMHpNAEnqqgj0WqHP-9" value="&lt;p style=&quot;line-height: 100%;&quot;&gt;Implementing System Design&lt;/p&gt;" style="text;html=1;align=left;verticalAlign=middle;resizable=0;points=[];autosize=1;strokeColor=none;fillColor=none;fontSize=10;rounded=0;shadow=1;" parent="1" vertex="1">
          <mxGeometry x="974" y="590" width="150" height="40" as="geometry" />
        </mxCell>
        <mxCell id="XczhMHpNAEnqqgj0WqHP-10" value="" style="endArrow=none;html=1;rounded=0;strokeWidth=1;endSize=6;jumpSize=6;entryX=0.851;entryY=0.002;entryDx=0;entryDy=0;entryPerimeter=0;exitX=0.985;exitY=0.945;exitDx=0;exitDy=0;exitPerimeter=0;shadow=1;" parent="1" source="XczhMHpNAEnqqgj0WqHP-111" target="XczhMHpNAEnqqgj0WqHP-15" edge="1">
          <mxGeometry width="50" height="50" relative="1" as="geometry">
            <mxPoint x="2145" y="569.94" as="sourcePoint" />
            <mxPoint x="1125" y="569.94" as="targetPoint" />
          </mxGeometry>
        </mxCell>
        <mxCell id="XczhMHpNAEnqqgj0WqHP-11" value="Week (2024)" style="text;html=1;align=left;verticalAlign=middle;resizable=0;points=[];autosize=1;strokeColor=none;fillColor=none;fontStyle=1;rounded=0;shadow=1;" parent="1" vertex="1">
          <mxGeometry x="1135" y="519.94" width="90" height="30" as="geometry" />
        </mxCell>
        <mxCell id="XczhMHpNAEnqqgj0WqHP-12" value="Task" style="text;html=1;align=left;verticalAlign=middle;resizable=0;points=[];autosize=1;strokeColor=none;fillColor=none;fontStyle=1;rounded=0;shadow=1;" parent="1" vertex="1">
          <mxGeometry x="1090" y="519.94" width="50" height="30" as="geometry" />
        </mxCell>
        <mxCell id="XczhMHpNAEnqqgj0WqHP-15" value="Implementation" style="text;html=1;align=left;verticalAlign=middle;resizable=0;points=[];autosize=1;strokeColor=none;fillColor=none;fontSize=10;fontStyle=1;rounded=0;shadow=1;" parent="1" vertex="1">
          <mxGeometry x="1035" y="569.94" width="100" height="30" as="geometry" />
        </mxCell>
        <mxCell id="XczhMHpNAEnqqgj0WqHP-16" value="&lt;p style=&quot;line-height: 100%;&quot;&gt;&lt;font style=&quot;font-size: 10px;&quot;&gt;&amp;nbsp;CLF Level 1 Tests&lt;/font&gt;&lt;/p&gt;" style="text;html=1;align=left;verticalAlign=middle;resizable=0;points=[];autosize=1;strokeColor=none;fillColor=none;fontSize=10;rounded=0;shadow=1;" parent="1" vertex="1">
          <mxGeometry x="1027" y="610" width="110" height="40" as="geometry" />
        </mxCell>
        <mxCell id="XczhMHpNAEnqqgj0WqHP-17" value="&lt;p style=&quot;line-height: 100%;&quot;&gt;CLF Level 2 Tests&lt;br&gt;&lt;/p&gt;" style="text;html=1;align=left;verticalAlign=middle;resizable=0;points=[];autosize=1;strokeColor=none;fillColor=none;fontSize=10;rounded=0;shadow=1;" parent="1" vertex="1">
          <mxGeometry x="1030" y="630" width="100" height="40" as="geometry" />
        </mxCell>
        <mxCell id="XczhMHpNAEnqqgj0WqHP-18" value="Final Report" style="text;html=1;align=left;verticalAlign=middle;resizable=0;points=[];autosize=1;strokeColor=none;fillColor=none;fontSize=10;fontStyle=1;rounded=0;shadow=1;" parent="1" vertex="1">
          <mxGeometry x="1050" y="719.94" width="80" height="30" as="geometry" />
        </mxCell>
        <mxCell id="XczhMHpNAEnqqgj0WqHP-19" value="&lt;p style=&quot;line-height: 100%;&quot;&gt;Specification &amp;amp; Design&lt;/p&gt;" style="text;html=1;align=left;verticalAlign=middle;resizable=0;points=[];autosize=1;strokeColor=none;fillColor=none;fontSize=10;rounded=0;shadow=1;" parent="1" vertex="1">
          <mxGeometry x="1008" y="739.94" width="120" height="40" as="geometry" />
        </mxCell>
        <mxCell id="XczhMHpNAEnqqgj0WqHP-20" value="&lt;p style=&quot;line-height: 100%;&quot;&gt;Implementation&lt;/p&gt;" style="text;html=1;align=left;verticalAlign=middle;resizable=0;points=[];autosize=1;strokeColor=none;fillColor=none;fontSize=10;rounded=0;shadow=1;" parent="1" vertex="1">
          <mxGeometry x="1040" y="759.94" width="90" height="40" as="geometry" />
        </mxCell>
        <mxCell id="XczhMHpNAEnqqgj0WqHP-21" value="&lt;p style=&quot;line-height: 100%;&quot;&gt;Review Project Aims&lt;/p&gt;" style="text;html=1;align=left;verticalAlign=middle;resizable=0;points=[];autosize=1;strokeColor=none;fillColor=none;fontSize=10;rounded=0;shadow=1;" parent="1" vertex="1">
          <mxGeometry x="1018" y="819.94" width="110" height="40" as="geometry" />
        </mxCell>
        <mxCell id="XczhMHpNAEnqqgj0WqHP-22" value="&lt;p style=&quot;line-height: 100%;&quot;&gt;Results, Evaluate &amp;amp; Conclude&lt;/p&gt;" style="text;html=1;align=left;verticalAlign=middle;resizable=0;points=[];autosize=1;strokeColor=none;fillColor=none;fontSize=10;rounded=0;shadow=1;" parent="1" vertex="1">
          <mxGeometry x="978" y="778.94" width="150" height="42" as="geometry" />
        </mxCell>
        <mxCell id="XczhMHpNAEnqqgj0WqHP-23" value="Handin" style="text;html=1;align=left;verticalAlign=middle;resizable=0;points=[];autosize=1;strokeColor=none;fillColor=none;fontSize=10;fontStyle=1;rounded=0;shadow=1;" parent="1" vertex="1">
          <mxGeometry x="1075" y="849.94" width="60" height="30" as="geometry" />
        </mxCell>
        <mxCell id="XczhMHpNAEnqqgj0WqHP-24" value="&lt;font style=&quot;font-size: 10px;&quot;&gt;04/03&lt;/font&gt;" style="text;html=1;align=center;verticalAlign=middle;resizable=0;points=[];autosize=1;strokeColor=none;fillColor=none;spacing=0;rounded=0;shadow=1;" parent="1" vertex="1">
          <mxGeometry x="1440" y="549.94" width="40" height="20" as="geometry" />
        </mxCell>
        <mxCell id="XczhMHpNAEnqqgj0WqHP-25" value="&lt;font style=&quot;font-size: 10px;&quot;&gt;15/01&lt;/font&gt;" style="text;html=1;align=center;verticalAlign=middle;resizable=0;points=[];autosize=1;strokeColor=none;fillColor=none;spacing=0;rounded=0;shadow=1;" parent="1" vertex="1">
          <mxGeometry x="1165" y="549.94" width="40" height="20" as="geometry" />
        </mxCell>
        <mxCell id="XczhMHpNAEnqqgj0WqHP-26" value="&lt;font style=&quot;font-size: 10px;&quot;&gt;22/01&lt;/font&gt;" style="text;html=1;align=center;verticalAlign=middle;resizable=0;points=[];autosize=1;strokeColor=none;fillColor=none;spacing=0;rounded=0;shadow=1;" parent="1" vertex="1">
          <mxGeometry x="1200" y="549.94" width="40" height="20" as="geometry" />
        </mxCell>
        <mxCell id="XczhMHpNAEnqqgj0WqHP-27" value="&lt;span style=&quot;font-size: 10px;&quot;&gt;29/01&lt;/span&gt;" style="text;html=1;align=center;verticalAlign=middle;resizable=0;points=[];autosize=1;strokeColor=none;fillColor=none;spacing=0;rounded=0;shadow=1;" parent="1" vertex="1">
          <mxGeometry x="1240" y="549.94" width="40" height="20" as="geometry" />
        </mxCell>
        <mxCell id="XczhMHpNAEnqqgj0WqHP-28" value="&lt;font style=&quot;font-size: 10px;&quot;&gt;05/02&lt;/font&gt;" style="text;html=1;align=center;verticalAlign=middle;resizable=0;points=[];autosize=1;strokeColor=none;fillColor=none;spacing=0;rounded=0;shadow=1;" parent="1" vertex="1">
          <mxGeometry x="1280" y="549.94" width="40" height="20" as="geometry" />
        </mxCell>
        <mxCell id="XczhMHpNAEnqqgj0WqHP-29" value="&lt;font style=&quot;font-size: 10px;&quot;&gt;12/02&lt;/font&gt;" style="text;html=1;align=center;verticalAlign=middle;resizable=0;points=[];autosize=1;strokeColor=none;fillColor=none;spacing=0;rounded=0;shadow=1;" parent="1" vertex="1">
          <mxGeometry x="1320" y="549.94" width="40" height="20" as="geometry" />
        </mxCell>
        <mxCell id="XczhMHpNAEnqqgj0WqHP-30" value="&lt;font style=&quot;font-size: 10px;&quot;&gt;19/02&lt;/font&gt;" style="text;html=1;align=center;verticalAlign=middle;resizable=0;points=[];autosize=1;strokeColor=none;fillColor=none;spacing=0;rounded=0;shadow=1;" parent="1" vertex="1">
          <mxGeometry x="1360" y="549.94" width="40" height="20" as="geometry" />
        </mxCell>
        <mxCell id="XczhMHpNAEnqqgj0WqHP-31" value="&lt;font style=&quot;font-size: 10px;&quot;&gt;26/02&lt;/font&gt;" style="text;html=1;align=center;verticalAlign=middle;resizable=0;points=[];autosize=1;strokeColor=none;fillColor=none;spacing=0;rounded=0;shadow=1;" parent="1" vertex="1">
          <mxGeometry x="1400" y="549.94" width="40" height="20" as="geometry" />
        </mxCell>
        <mxCell id="XczhMHpNAEnqqgj0WqHP-32" value="Viva" style="text;html=1;align=left;verticalAlign=middle;resizable=0;points=[];autosize=1;strokeColor=none;fillColor=none;fontSize=10;fontStyle=1;rounded=0;shadow=1;" parent="1" vertex="1">
          <mxGeometry x="1090" y="879.94" width="40" height="30" as="geometry" />
        </mxCell>
        <mxCell id="XczhMHpNAEnqqgj0WqHP-33" value="&lt;p style=&quot;line-height: 100%;&quot;&gt;Review Research&lt;/p&gt;" style="text;html=1;align=left;verticalAlign=middle;resizable=0;points=[];autosize=1;strokeColor=none;fillColor=none;fontSize=10;rounded=0;shadow=1;" parent="1" vertex="1">
          <mxGeometry x="1030" y="799.94" width="100" height="40" as="geometry" />
        </mxCell>
        <mxCell id="XczhMHpNAEnqqgj0WqHP-34" value="&lt;font style=&quot;font-size: 10px;&quot;&gt;11/03&lt;/font&gt;" style="text;html=1;align=center;verticalAlign=middle;resizable=0;points=[];autosize=1;strokeColor=none;fillColor=none;spacing=0;rounded=0;shadow=1;" parent="1" vertex="1">
          <mxGeometry x="1480" y="549.94" width="40" height="20" as="geometry" />
        </mxCell>
        <mxCell id="XczhMHpNAEnqqgj0WqHP-35" value="&lt;font style=&quot;font-size: 10px;&quot;&gt;18/03&lt;/font&gt;" style="text;html=1;align=center;verticalAlign=middle;resizable=0;points=[];autosize=1;strokeColor=none;fillColor=none;spacing=0;rounded=0;shadow=1;" parent="1" vertex="1">
          <mxGeometry x="1520" y="550" width="40" height="20" as="geometry" />
        </mxCell>
        <mxCell id="XczhMHpNAEnqqgj0WqHP-40" value="" style="endArrow=none;html=1;rounded=0;strokeWidth=0.5;dashed=1;dashPattern=8 8;strokeColor=#595959;shadow=1;" parent="1" edge="1">
          <mxGeometry width="50" height="50" relative="1" as="geometry">
            <mxPoint x="1480" y="910.12" as="sourcePoint" />
            <mxPoint x="1480" y="550.0600000000001" as="targetPoint" />
          </mxGeometry>
        </mxCell>
        <mxCell id="XczhMHpNAEnqqgj0WqHP-41" value="" style="endArrow=none;html=1;rounded=0;strokeWidth=1;dashed=1;dashPattern=8 8;strokeColor=#595959;shadow=1;" parent="1" edge="1">
          <mxGeometry width="50" height="50" relative="1" as="geometry">
            <mxPoint x="1560" y="909.94" as="sourcePoint" />
            <mxPoint x="1560" y="549.94" as="targetPoint" />
          </mxGeometry>
        </mxCell>
        <mxCell id="XczhMHpNAEnqqgj0WqHP-42" value="" style="endArrow=none;html=1;rounded=0;strokeWidth=0.5;dashed=1;dashPattern=8 8;strokeColor=#595959;shadow=1;" parent="1" edge="1">
          <mxGeometry width="50" height="50" relative="1" as="geometry">
            <mxPoint x="1600" y="909.94" as="sourcePoint" />
            <mxPoint x="1600" y="549.94" as="targetPoint" />
          </mxGeometry>
        </mxCell>
        <mxCell id="XczhMHpNAEnqqgj0WqHP-43" value="" style="endArrow=none;html=1;rounded=0;strokeWidth=0.5;dashed=1;dashPattern=8 8;strokeColor=#595959;shadow=1;" parent="1" edge="1">
          <mxGeometry width="50" height="50" relative="1" as="geometry">
            <mxPoint x="1640" y="909.94" as="sourcePoint" />
            <mxPoint x="1640" y="549.94" as="targetPoint" />
          </mxGeometry>
        </mxCell>
        <mxCell id="XczhMHpNAEnqqgj0WqHP-44" value="" style="endArrow=none;html=1;rounded=0;strokeWidth=0.5;dashed=1;dashPattern=8 8;strokeColor=#595959;shadow=1;" parent="1" edge="1">
          <mxGeometry width="50" height="50" relative="1" as="geometry">
            <mxPoint x="1680" y="909.94" as="sourcePoint" />
            <mxPoint x="1680" y="549.94" as="targetPoint" />
          </mxGeometry>
        </mxCell>
        <mxCell id="XczhMHpNAEnqqgj0WqHP-47" value="&lt;p style=&quot;line-height: 100%;&quot;&gt;CLF Level 3 Tests&lt;br&gt;&lt;/p&gt;" style="text;html=1;align=left;verticalAlign=middle;resizable=0;points=[];autosize=1;strokeColor=none;fillColor=none;fontSize=10;rounded=0;shadow=1;" parent="1" vertex="1">
          <mxGeometry x="1030" y="650" width="100" height="40" as="geometry" />
        </mxCell>
        <mxCell id="XczhMHpNAEnqqgj0WqHP-48" value="&lt;p style=&quot;line-height: 100%;&quot;&gt;CLF Level 4 Tests&lt;br&gt;&lt;/p&gt;" style="text;html=1;align=left;verticalAlign=middle;resizable=0;points=[];autosize=1;strokeColor=none;fillColor=none;fontSize=10;rounded=0;shadow=1;" parent="1" vertex="1">
          <mxGeometry x="1030" y="670" width="100" height="40" as="geometry" />
        </mxCell>
        <mxCell id="XczhMHpNAEnqqgj0WqHP-49" value="&lt;p style=&quot;line-height: 100%;&quot;&gt;YOLO Tests&lt;/p&gt;" style="text;html=1;align=left;verticalAlign=middle;resizable=0;points=[];autosize=1;strokeColor=none;fillColor=none;fontSize=10;rounded=0;shadow=1;" parent="1" vertex="1">
          <mxGeometry x="1055" y="691" width="80" height="40" as="geometry" />
        </mxCell>
        <mxCell id="XczhMHpNAEnqqgj0WqHP-51" value="Exam Period" style="text;html=1;align=center;verticalAlign=middle;resizable=0;points=[];autosize=1;strokeColor=none;fillColor=none;rounded=0;shadow=1;" parent="1" vertex="1">
          <mxGeometry x="1135" y="909.94" width="90" height="30" as="geometry" />
        </mxCell>
        <mxCell id="XczhMHpNAEnqqgj0WqHP-57" style="edgeStyle=orthogonalEdgeStyle;orthogonalLoop=1;jettySize=auto;html=1;exitX=0;exitY=0.25;exitDx=0;exitDy=0;shadow=1;" parent="1" edge="1">
          <mxGeometry relative="1" as="geometry">
            <mxPoint x="1439.6666666666667" y="727.6066666666668" as="targetPoint" />
            <mxPoint x="1440" y="727.44" as="sourcePoint" />
          </mxGeometry>
        </mxCell>
        <mxCell id="XczhMHpNAEnqqgj0WqHP-60" value="" style="endArrow=none;html=1;rounded=0;strokeWidth=0.5;dashed=1;dashPattern=8 8;strokeColor=#595959;shadow=1;" parent="1" edge="1">
          <mxGeometry width="50" height="50" relative="1" as="geometry">
            <mxPoint x="1400" y="909.94" as="sourcePoint" />
            <mxPoint x="1399.66" y="549.94" as="targetPoint" />
          </mxGeometry>
        </mxCell>
        <mxCell id="XczhMHpNAEnqqgj0WqHP-63" value="" style="endArrow=none;html=1;rounded=0;strokeWidth=0.5;dashed=1;dashPattern=8 8;strokeColor=#595959;shadow=1;" parent="1" edge="1">
          <mxGeometry width="50" height="50" relative="1" as="geometry">
            <mxPoint x="1439" y="909.94" as="sourcePoint" />
            <mxPoint x="1439.17" y="549.94" as="targetPoint" />
          </mxGeometry>
        </mxCell>
        <mxCell id="XczhMHpNAEnqqgj0WqHP-74" value="&lt;span style=&quot;font-size: 10px;&quot;&gt;08/01&lt;/span&gt;" style="text;html=1;align=center;verticalAlign=middle;resizable=0;points=[];autosize=1;strokeColor=none;fillColor=none;spacing=0;rounded=0;shadow=1;" parent="1" vertex="1">
          <mxGeometry x="1120" y="549.94" width="40" height="20" as="geometry" />
        </mxCell>
        <mxCell id="XczhMHpNAEnqqgj0WqHP-75" value="&lt;font style=&quot;font-size: 10px;&quot;&gt;25/03&lt;/font&gt;" style="text;html=1;align=center;verticalAlign=middle;resizable=0;points=[];autosize=1;strokeColor=none;fillColor=none;spacing=0;rounded=0;shadow=1;" parent="1" vertex="1">
          <mxGeometry x="1560" y="550" width="40" height="20" as="geometry" />
        </mxCell>
        <mxCell id="XczhMHpNAEnqqgj0WqHP-76" value="&lt;font style=&quot;font-size: 10px;&quot;&gt;01/04&lt;/font&gt;" style="text;html=1;align=center;verticalAlign=middle;resizable=0;points=[];autosize=1;strokeColor=none;fillColor=none;spacing=0;rounded=0;shadow=1;" parent="1" vertex="1">
          <mxGeometry x="1600" y="549.94" width="40" height="20" as="geometry" />
        </mxCell>
        <mxCell id="XczhMHpNAEnqqgj0WqHP-77" value="&lt;font style=&quot;font-size: 10px;&quot;&gt;08/04&lt;/font&gt;" style="text;html=1;align=center;verticalAlign=middle;resizable=0;points=[];autosize=1;strokeColor=none;fillColor=none;spacing=0;rounded=0;shadow=1;" parent="1" vertex="1">
          <mxGeometry x="1640" y="549.94" width="40" height="20" as="geometry" />
        </mxCell>
        <mxCell id="XczhMHpNAEnqqgj0WqHP-78" value="&lt;font style=&quot;font-size: 10px;&quot;&gt;15/04&lt;/font&gt;" style="text;html=1;align=center;verticalAlign=middle;resizable=0;points=[];autosize=1;strokeColor=none;fillColor=none;spacing=0;rounded=0;shadow=1;" parent="1" vertex="1">
          <mxGeometry x="1680" y="550" width="40" height="20" as="geometry" />
        </mxCell>
        <mxCell id="XczhMHpNAEnqqgj0WqHP-87" value="" style="endArrow=none;html=1;rounded=0;strokeWidth=0.5;dashed=1;dashPattern=8 8;strokeColor=#595959;shadow=1;" parent="1" edge="1">
          <mxGeometry width="50" height="50" relative="1" as="geometry">
            <mxPoint x="1760" y="910" as="sourcePoint" />
            <mxPoint x="1760" y="550" as="targetPoint" />
          </mxGeometry>
        </mxCell>
        <mxCell id="XczhMHpNAEnqqgj0WqHP-88" value="" style="endArrow=none;html=1;rounded=0;strokeWidth=0.5;dashed=1;dashPattern=8 8;strokeColor=#595959;shadow=1;" parent="1" edge="1">
          <mxGeometry width="50" height="50" relative="1" as="geometry">
            <mxPoint x="1800" y="910" as="sourcePoint" />
            <mxPoint x="1800" y="550" as="targetPoint" />
          </mxGeometry>
        </mxCell>
        <mxCell id="XczhMHpNAEnqqgj0WqHP-89" value="" style="endArrow=none;html=1;rounded=0;strokeWidth=0.5;dashed=1;dashPattern=8 8;strokeColor=#595959;shadow=1;" parent="1" edge="1">
          <mxGeometry width="50" height="50" relative="1" as="geometry">
            <mxPoint x="1840" y="910" as="sourcePoint" />
            <mxPoint x="1840" y="550" as="targetPoint" />
          </mxGeometry>
        </mxCell>
        <mxCell id="XczhMHpNAEnqqgj0WqHP-90" value="&lt;font style=&quot;font-size: 10px;&quot;&gt;22/04&lt;/font&gt;" style="text;html=1;align=center;verticalAlign=middle;resizable=0;points=[];autosize=1;strokeColor=none;fillColor=none;spacing=0;rounded=0;shadow=1;" parent="1" vertex="1">
          <mxGeometry x="1720" y="550" width="40" height="20" as="geometry" />
        </mxCell>
        <mxCell id="XczhMHpNAEnqqgj0WqHP-91" value="&lt;font style=&quot;font-size: 10px;&quot;&gt;29/04&lt;/font&gt;" style="text;html=1;align=center;verticalAlign=middle;resizable=0;points=[];autosize=1;strokeColor=none;fillColor=none;spacing=0;rounded=0;shadow=1;" parent="1" vertex="1">
          <mxGeometry x="1760" y="550" width="40" height="20" as="geometry" />
        </mxCell>
        <mxCell id="XczhMHpNAEnqqgj0WqHP-92" value="&lt;font style=&quot;font-size: 10px;&quot;&gt;06/05&lt;/font&gt;" style="text;html=1;align=center;verticalAlign=middle;resizable=0;points=[];autosize=1;strokeColor=none;fillColor=none;spacing=0;rounded=0;shadow=1;" parent="1" vertex="1">
          <mxGeometry x="1800" y="550.06" width="40" height="20" as="geometry" />
        </mxCell>
        <mxCell id="XczhMHpNAEnqqgj0WqHP-95" value="" style="endArrow=none;html=1;rounded=0;strokeWidth=1;dashed=1;dashPattern=8 8;strokeColor=#595959;shadow=1;" parent="1" edge="1">
          <mxGeometry width="50" height="50" relative="1" as="geometry">
            <mxPoint x="1720" y="910.0600000000001" as="sourcePoint" />
            <mxPoint x="1720" y="550.0600000000001" as="targetPoint" />
          </mxGeometry>
        </mxCell>
        <mxCell id="XczhMHpNAEnqqgj0WqHP-96" value="Easter Break" style="text;html=1;align=center;verticalAlign=middle;resizable=0;points=[];autosize=1;strokeColor=none;fillColor=none;rounded=0;shadow=1;" parent="1" vertex="1">
          <mxGeometry x="670" y="490" width="90" height="30" as="geometry" />
        </mxCell>
        <mxCell id="XczhMHpNAEnqqgj0WqHP-97" value="" style="edgeStyle=none;orthogonalLoop=1;jettySize=auto;html=1;rounded=0;shadow=1;" parent="1" source="XczhMHpNAEnqqgj0WqHP-96" edge="1">
          <mxGeometry width="100" relative="1" as="geometry">
            <mxPoint x="617" y="513" as="sourcePoint" />
            <mxPoint x="650" y="530" as="targetPoint" />
            <Array as="points" />
          </mxGeometry>
        </mxCell>
        <mxCell id="XczhMHpNAEnqqgj0WqHP-98" value="Easter Break" style="text;html=1;align=center;verticalAlign=middle;resizable=0;points=[];autosize=1;strokeColor=none;fillColor=none;rounded=0;shadow=1;" parent="1" vertex="1">
          <mxGeometry x="1600" y="910" width="90" height="30" as="geometry" />
        </mxCell>
        <mxCell id="XczhMHpNAEnqqgj0WqHP-101" value="" style="endArrow=none;html=1;rounded=0;strokeWidth=0.5;dashed=1;dashPattern=8 8;strokeColor=#595959;shadow=1;" parent="1" edge="1">
          <mxGeometry width="50" height="50" relative="1" as="geometry">
            <mxPoint x="1880" y="685" as="sourcePoint" />
            <mxPoint x="1880" y="549.94" as="targetPoint" />
          </mxGeometry>
        </mxCell>
        <mxCell id="XczhMHpNAEnqqgj0WqHP-102" value="" style="endArrow=none;html=1;rounded=0;strokeWidth=0.5;dashed=1;dashPattern=8 8;strokeColor=#595959;shadow=1;" parent="1" edge="1">
          <mxGeometry width="50" height="50" relative="1" as="geometry">
            <mxPoint x="1920" y="909.94" as="sourcePoint" />
            <mxPoint x="1920" y="549.94" as="targetPoint" />
          </mxGeometry>
        </mxCell>
        <mxCell id="XczhMHpNAEnqqgj0WqHP-103" value="&lt;font style=&quot;font-size: 10px;&quot;&gt;13/05&lt;/font&gt;" style="text;html=1;align=center;verticalAlign=middle;resizable=0;points=[];autosize=1;strokeColor=none;fillColor=none;spacing=0;rounded=0;shadow=1;" parent="1" vertex="1">
          <mxGeometry x="1840" y="549.94" width="40" height="20" as="geometry" />
        </mxCell>
        <mxCell id="XczhMHpNAEnqqgj0WqHP-104" value="&lt;font style=&quot;font-size: 10px;&quot;&gt;20/05&lt;/font&gt;" style="text;html=1;align=center;verticalAlign=middle;resizable=0;points=[];autosize=1;strokeColor=none;fillColor=none;spacing=0;rounded=0;shadow=1;" parent="1" vertex="1">
          <mxGeometry x="1880" y="550" width="40" height="20" as="geometry" />
        </mxCell>
        <mxCell id="XczhMHpNAEnqqgj0WqHP-106" value="" style="endArrow=none;html=1;rounded=0;strokeWidth=0.5;dashed=1;dashPattern=8 8;strokeColor=#595959;shadow=1;" parent="1" edge="1">
          <mxGeometry width="50" height="50" relative="1" as="geometry">
            <mxPoint x="1960" y="910" as="sourcePoint" />
            <mxPoint x="1960" y="550" as="targetPoint" />
          </mxGeometry>
        </mxCell>
        <mxCell id="XczhMHpNAEnqqgj0WqHP-107" value="" style="endArrow=none;html=1;rounded=0;strokeWidth=0.5;dashed=1;dashPattern=8 8;strokeColor=#595959;shadow=1;" parent="1" edge="1">
          <mxGeometry width="50" height="50" relative="1" as="geometry">
            <mxPoint x="2000" y="910" as="sourcePoint" />
            <mxPoint x="2000" y="550" as="targetPoint" />
          </mxGeometry>
        </mxCell>
        <mxCell id="XczhMHpNAEnqqgj0WqHP-108" value="&lt;font style=&quot;font-size: 10px;&quot;&gt;27/05&lt;/font&gt;" style="text;html=1;align=center;verticalAlign=middle;resizable=0;points=[];autosize=1;strokeColor=none;fillColor=none;spacing=0;rounded=0;shadow=1;" parent="1" vertex="1">
          <mxGeometry x="1920" y="550" width="40" height="20" as="geometry" />
        </mxCell>
        <mxCell id="XczhMHpNAEnqqgj0WqHP-109" value="&lt;font style=&quot;font-size: 10px;&quot;&gt;03/06&lt;/font&gt;" style="text;html=1;align=center;verticalAlign=middle;resizable=0;points=[];autosize=1;strokeColor=none;fillColor=none;spacing=0;rounded=0;shadow=1;" parent="1" vertex="1">
          <mxGeometry x="1960" y="550.06" width="40" height="20" as="geometry" />
        </mxCell>
        <mxCell id="XczhMHpNAEnqqgj0WqHP-110" value="" style="endArrow=none;html=1;rounded=0;strokeWidth=0.5;dashed=1;dashPattern=8 8;strokeColor=#595959;shadow=1;" parent="1" edge="1">
          <mxGeometry width="50" height="50" relative="1" as="geometry">
            <mxPoint x="2040" y="910.06" as="sourcePoint" />
            <mxPoint x="2040" y="550.06" as="targetPoint" />
          </mxGeometry>
        </mxCell>
        <mxCell id="XczhMHpNAEnqqgj0WqHP-111" value="&lt;font style=&quot;font-size: 10px;&quot;&gt;10/06&lt;/font&gt;" style="text;html=1;align=center;verticalAlign=middle;resizable=0;points=[];autosize=1;strokeColor=none;fillColor=none;spacing=0;rounded=0;shadow=1;" parent="1" vertex="1">
          <mxGeometry x="2000" y="549.9399999999999" width="40" height="20" as="geometry" />
        </mxCell>
        <mxCell id="XczhMHpNAEnqqgj0WqHP-116" value="Unable to work due to Personal Circumstance" style="text;html=1;align=center;verticalAlign=middle;resizable=0;points=[];autosize=1;strokeColor=none;fillColor=none;rounded=0;shadow=1;" parent="1" vertex="1">
          <mxGeometry x="1245" y="909.94" width="270" height="30" as="geometry" />
        </mxCell>
        <mxCell id="XczhMHpNAEnqqgj0WqHP-118" value="" style="rounded=0;whiteSpace=wrap;html=1;fillColor=#dae8fc;strokeColor=#6c8ebf;shadow=1;" parent="1" vertex="1">
          <mxGeometry x="2010" y="879.94" width="10" height="30" as="geometry" />
        </mxCell>
        <mxCell id="XczhMHpNAEnqqgj0WqHP-119" value="" style="rounded=0;whiteSpace=wrap;html=1;fillColor=#dae8fc;strokeColor=#6c8ebf;shadow=1;" parent="1" vertex="1">
          <mxGeometry x="1990" y="850" width="10" height="30" as="geometry" />
        </mxCell>
        <mxCell id="XczhMHpNAEnqqgj0WqHP-123" value="" style="rounded=0;whiteSpace=wrap;html=1;fillColor=#dae8fc;strokeColor=#6c8ebf;shadow=1;" parent="1" vertex="1">
          <mxGeometry x="1700" y="720" width="290" height="30" as="geometry" />
        </mxCell>
        <mxCell id="XczhMHpNAEnqqgj0WqHP-120" value="" style="rounded=0;whiteSpace=wrap;html=1;fillColor=#dae8fc;strokeColor=#6c8ebf;shadow=1;" parent="1" vertex="1">
          <mxGeometry x="1520" y="569.94" width="400" height="30" as="geometry" />
        </mxCell>
        <mxCell id="XczhMHpNAEnqqgj0WqHP-128" value="" style="rounded=0;whiteSpace=wrap;html=1;shadow=1;" parent="1" vertex="1">
          <mxGeometry x="1520" y="600" width="200" height="20" as="geometry" />
        </mxCell>
        <mxCell id="XczhMHpNAEnqqgj0WqHP-129" value="" style="rounded=0;whiteSpace=wrap;html=1;shadow=1;" parent="1" vertex="1">
          <mxGeometry x="1720" y="620" width="40" height="20" as="geometry" />
        </mxCell>
        <mxCell id="XczhMHpNAEnqqgj0WqHP-131" value="" style="rounded=0;whiteSpace=wrap;html=1;shadow=1;" parent="1" vertex="1">
          <mxGeometry x="1800" y="660" width="40" height="20" as="geometry" />
        </mxCell>
        <mxCell id="XczhMHpNAEnqqgj0WqHP-133" value="" style="rounded=0;whiteSpace=wrap;html=1;shadow=1;" parent="1" vertex="1">
          <mxGeometry x="1700" y="749.94" width="70" height="20" as="geometry" />
        </mxCell>
        <mxCell id="XczhMHpNAEnqqgj0WqHP-134" value="" style="rounded=0;whiteSpace=wrap;html=1;shadow=1;" parent="1" vertex="1">
          <mxGeometry x="1720" y="770" width="70" height="20" as="geometry" />
        </mxCell>
        <mxCell id="XczhMHpNAEnqqgj0WqHP-135" value="" style="rounded=0;whiteSpace=wrap;html=1;shadow=1;" parent="1" vertex="1">
          <mxGeometry x="1920" y="789.94" width="60" height="20" as="geometry" />
        </mxCell>
        <mxCell id="XczhMHpNAEnqqgj0WqHP-136" value="" style="rounded=0;whiteSpace=wrap;html=1;shadow=1;" parent="1" vertex="1">
          <mxGeometry x="1970" y="809.94" width="20" height="20" as="geometry" />
        </mxCell>
        <mxCell id="XczhMHpNAEnqqgj0WqHP-137" value="" style="rounded=0;whiteSpace=wrap;html=1;shadow=1;" parent="1" vertex="1">
          <mxGeometry x="1970" y="829.94" width="20" height="20" as="geometry" />
        </mxCell>
        <mxCell id="XczhMHpNAEnqqgj0WqHP-139" value="Deadline Extension Granted" style="text;html=1;align=center;verticalAlign=middle;resizable=0;points=[];autosize=1;strokeColor=none;fillColor=none;rounded=0;shadow=1;" parent="1" vertex="1">
          <mxGeometry x="1690" y="510.00000000000006" width="170" height="30" as="geometry" />
        </mxCell>
        <mxCell id="XczhMHpNAEnqqgj0WqHP-140" value="" style="edgeStyle=none;orthogonalLoop=1;jettySize=auto;html=1;rounded=0;exitX=-0.007;exitY=0.652;exitDx=0;exitDy=0;exitPerimeter=0;shadow=1;" parent="1" source="XczhMHpNAEnqqgj0WqHP-139" edge="1">
          <mxGeometry width="100" relative="1" as="geometry">
            <mxPoint x="1280" y="470" as="sourcePoint" />
            <mxPoint x="1666" y="545" as="targetPoint" />
            <Array as="points" />
          </mxGeometry>
        </mxCell>
        <mxCell id="XczhMHpNAEnqqgj0WqHP-142" value="" style="endArrow=none;html=1;rounded=0;strokeWidth=2;strokeColor=#3700CC;fillColor=#6a00ff;shadow=1;" parent="1" edge="1">
          <mxGeometry width="50" height="50" relative="1" as="geometry">
            <mxPoint x="1659.76" y="910.0600000000001" as="sourcePoint" />
            <mxPoint x="1659.76" y="550" as="targetPoint" />
          </mxGeometry>
        </mxCell>
        <mxCell id="XczhMHpNAEnqqgj0WqHP-143" value="" style="endArrow=none;html=1;rounded=0;strokeWidth=1;dashed=1;dashPattern=8 8;strokeColor=#595959;shadow=1;" parent="1" edge="1">
          <mxGeometry width="50" height="50" relative="1" as="geometry">
            <mxPoint x="1520" y="910.24" as="sourcePoint" />
            <mxPoint x="1520" y="550.24" as="targetPoint" />
          </mxGeometry>
        </mxCell>
        <mxCell id="XczhMHpNAEnqqgj0WqHP-146" value="COMP3208 Deadline: 10/05&lt;br&gt;COMP3212 Deadline: 16/05&lt;div&gt;Semester 2 Exams: 21/05, 23/05&lt;/div&gt;" style="text;html=1;align=center;verticalAlign=middle;resizable=0;points=[];autosize=1;strokeColor=none;fillColor=none;rounded=0;shadow=1;" parent="1" vertex="1">
          <mxGeometry x="1760" y="909.94" width="200" height="60" as="geometry" />
        </mxCell>
        <mxCell id="XczhMHpNAEnqqgj0WqHP-149" value="" style="rounded=0;whiteSpace=wrap;html=1;shadow=1;" parent="1" vertex="1">
          <mxGeometry x="1760" y="640" width="40" height="20" as="geometry" />
        </mxCell>
        <mxCell id="XczhMHpNAEnqqgj0WqHP-151" value="" style="rounded=0;whiteSpace=wrap;html=1;shadow=1;" parent="1" vertex="1">
          <mxGeometry x="1880" y="699.94" width="40" height="20" as="geometry" />
        </mxCell>
        <mxCell id="XczhMHpNAEnqqgj0WqHP-152" value="" style="rounded=0;whiteSpace=wrap;html=1;shadow=1;" parent="1" vertex="1">
          <mxGeometry x="1840" y="680" width="40" height="20" as="geometry" />
        </mxCell>
        <mxCell id="XczhMHpNAEnqqgj0WqHP-155" value="" style="rounded=0;whiteSpace=wrap;html=1;shadow=1;" parent="1" vertex="1">
          <mxGeometry x="1760" y="790" width="40" height="20" as="geometry" />
        </mxCell>
        <mxCell id="XczhMHpNAEnqqgj0WqHP-156" value="" style="rounded=0;whiteSpace=wrap;html=1;" parent="1" vertex="1">
          <mxGeometry x="1920" y="433" width="120" height="100" as="geometry" />
        </mxCell>
        <mxCell id="XczhMHpNAEnqqgj0WqHP-157" value="" style="rounded=0;whiteSpace=wrap;html=1;fillColor=#FF3333;strokeColor=#b85450;" parent="1" vertex="1">
          <mxGeometry x="1930" y="463" width="30" height="10" as="geometry" />
        </mxCell>
        <mxCell id="XczhMHpNAEnqqgj0WqHP-158" value="" style="rounded=0;whiteSpace=wrap;html=1;fillColor=#00CC00;strokeColor=#82b366;" parent="1" vertex="1">
          <mxGeometry x="1930" y="513" width="30" height="10" as="geometry" />
        </mxCell>
        <mxCell id="XczhMHpNAEnqqgj0WqHP-159" value="" style="rounded=0;whiteSpace=wrap;html=1;fillColor=#FF8000;strokeColor=#d6b656;" parent="1" vertex="1">
          <mxGeometry x="1930" y="488" width="30" height="10" as="geometry" />
        </mxCell>
        <mxCell id="XczhMHpNAEnqqgj0WqHP-160" value="&lt;font style=&quot;font-size: 8px;&quot;&gt;Major Overrun&lt;/font&gt;" style="text;html=1;align=left;verticalAlign=middle;resizable=0;points=[];autosize=1;strokeColor=none;fillColor=none;rounded=0;" parent="1" vertex="1">
          <mxGeometry x="1970" y="453" width="70" height="30" as="geometry" />
        </mxCell>
        <mxCell id="XczhMHpNAEnqqgj0WqHP-161" value="&lt;font style=&quot;font-size: 8px;&quot;&gt;Minor Overrun&lt;/font&gt;" style="text;html=1;align=left;verticalAlign=middle;resizable=0;points=[];autosize=1;strokeColor=none;fillColor=none;rounded=0;" parent="1" vertex="1">
          <mxGeometry x="1970" y="478" width="70" height="30" as="geometry" />
        </mxCell>
        <mxCell id="XczhMHpNAEnqqgj0WqHP-162" value="&lt;span style=&quot;font-size: 8px;&quot;&gt;On Target&lt;/span&gt;" style="text;html=1;align=left;verticalAlign=middle;resizable=0;points=[];autosize=1;strokeColor=none;fillColor=none;rounded=0;" parent="1" vertex="1">
          <mxGeometry x="1970" y="503" width="60" height="30" as="geometry" />
        </mxCell>
        <mxCell id="XczhMHpNAEnqqgj0WqHP-163" value="&lt;b&gt;&lt;font style=&quot;font-size: 10px;&quot;&gt;Work Completed&lt;/font&gt;&lt;/b&gt;" style="text;html=1;align=left;verticalAlign=middle;resizable=0;points=[];autosize=1;strokeColor=none;fillColor=none;rounded=0;" parent="1" vertex="1">
          <mxGeometry x="1930" y="433" width="100" height="30" as="geometry" />
        </mxCell>
        <mxCell id="XczhMHpNAEnqqgj0WqHP-164" value="" style="rounded=0;whiteSpace=wrap;html=1;fillColor=#FF8000;strokeColor=#d6b656;" parent="1" vertex="1">
          <mxGeometry x="1537" y="605" width="342" height="10" as="geometry" />
        </mxCell>
        <mxCell id="XczhMHpNAEnqqgj0WqHP-166" value="" style="rounded=0;whiteSpace=wrap;html=1;fillColor=#00CC00;strokeColor=#82b366;" parent="1" vertex="1">
          <mxGeometry x="1720" y="625" width="39" height="10" as="geometry" />
        </mxCell>
        <mxCell id="XczhMHpNAEnqqgj0WqHP-168" value="" style="rounded=0;whiteSpace=wrap;html=1;fillColor=#FF8000;strokeColor=#d6b656;" parent="1" vertex="1">
          <mxGeometry x="1760" y="645" width="40" height="10" as="geometry" />
        </mxCell>
        <mxCell id="XczhMHpNAEnqqgj0WqHP-173" value="" style="rounded=0;whiteSpace=wrap;html=1;fillColor=#FF8000;strokeColor=#d6b656;" parent="1" vertex="1">
          <mxGeometry x="1800" y="665" width="79" height="10" as="geometry" />
        </mxCell>
        <mxCell id="XczhMHpNAEnqqgj0WqHP-175" value="" style="endArrow=none;html=1;rounded=0;strokeWidth=0.5;dashed=1;dashPattern=8 8;strokeColor=#595959;shadow=1;" parent="1" edge="1">
          <mxGeometry width="50" height="50" relative="1" as="geometry">
            <mxPoint x="1880" y="909.94" as="sourcePoint" />
            <mxPoint x="1880" y="695" as="targetPoint" />
          </mxGeometry>
        </mxCell>
        <mxCell id="XczhMHpNAEnqqgj0WqHP-176" value="" style="rounded=0;whiteSpace=wrap;html=1;fillColor=#FF8000;strokeColor=#d6b656;" parent="1" vertex="1">
          <mxGeometry x="1880" y="685" width="40" height="10" as="geometry" />
        </mxCell>
        <mxCell id="XczhMHpNAEnqqgj0WqHP-177" value="" style="rounded=0;whiteSpace=wrap;html=1;fillColor=#FF8000;strokeColor=#d6b656;" parent="1" vertex="1">
          <mxGeometry x="1920" y="704.94" width="40" height="10" as="geometry" />
        </mxCell>
        <mxCell id="XczhMHpNAEnqqgj0WqHP-178" value="" style="rounded=0;whiteSpace=wrap;html=1;fillColor=#00CC00;strokeColor=#82b366;" parent="1" vertex="1">
          <mxGeometry x="1700" y="755" width="70" height="10" as="geometry" />
        </mxCell>
        <mxCell id="XczhMHpNAEnqqgj0WqHP-179" value="" style="rounded=0;whiteSpace=wrap;html=1;fillColor=#FF8000;strokeColor=#d6b656;" parent="1" vertex="1">
          <mxGeometry x="1740" y="774.94" width="60" height="10" as="geometry" />
        </mxCell>
        <mxCell id="XczhMHpNAEnqqgj0WqHP-180" value="" style="rounded=0;whiteSpace=wrap;html=1;fillColor=#00CC00;strokeColor=#82b366;" parent="1" vertex="1">
          <mxGeometry x="1780" y="794.94" width="20" height="10" as="geometry" />
        </mxCell>
        <mxCell id="XczhMHpNAEnqqgj0WqHP-181" value="" style="rounded=0;whiteSpace=wrap;html=1;fillColor=#00CC00;strokeColor=#82b366;" parent="1" vertex="1">
          <mxGeometry x="1920" y="795" width="60" height="10" as="geometry" />
        </mxCell>
        <mxCell id="XczhMHpNAEnqqgj0WqHP-182" value="" style="rounded=0;whiteSpace=wrap;html=1;fillColor=#00CC00;strokeColor=#82b366;" parent="1" vertex="1">
          <mxGeometry x="1970" y="815" width="20" height="10" as="geometry" />
        </mxCell>
        <mxCell id="XczhMHpNAEnqqgj0WqHP-183" value="" style="rounded=0;whiteSpace=wrap;html=1;fillColor=#00CC00;strokeColor=#82b366;" parent="1" vertex="1">
          <mxGeometry x="1970" y="834.94" width="20" height="10" as="geometry" />
        </mxCell>
      </root>
    </mxGraphModel>
  </diagram>
</mxfile>
